<?xml version="1.0" encoding="utf-8"?>
<svg xmlns="http://www.w3.org/2000/svg" version="1.1" viewBox="0 0 1674 663">
	<title>A silhouette illustration of John Markham holding a gun while standing before Philo Vance sitting in a chair. A line is drawn from the gun through Vance’s forehead to the bullet-hole in the wainscot behind him.</title>
	<path d="m7.407 645.5c-3.4966-3.0703-4.5717-6.0566-3.8685-10.746l0.6496-4.3318 9.156-0.66247c12.279-0.8884 91.168-0.91277 110.91-0.0343l15.75 0.70102v-6.0098c0-6.546-1.4725-8.8874-5.0078-7.9629-3.0515 0.79799-3.8004-1.7418-3.5522-12.048 0.19861-8.2479 0.48634-9.5364 2.6414-11.829l2.4185-2.5729 0.66581-12.171c0.36619-6.694 1.1208-14.646 1.677-17.671 0.55616-3.025 1.044-7.8075 1.0842-10.628 0.0402-2.8203 0.71464-6.6635 1.4989-8.5405 3.2699-7.8259 3.6071-38.222 0.55283-49.832-0.65113-2.475-1.4072-6.975-1.6801-10s-0.86347-5.95-1.3123-6.5c-0.44882-0.55-1.1166-4.375-1.484-8.5-0.3674-4.125-1.0575-8.85-1.5335-10.5-0.47599-1.65-1.1357-5.25-1.466-8s-0.86171-7.1469-1.1809-9.7708-0.97219-5.013-1.4511-5.309-0.87077-3.635-0.87077-7.4201-0.47185-7.1736-1.0486-7.53c-1.5341-0.94812 0.84023-3.4872 2.6217-2.8036 0.87105 0.33425 1.4269-0.0784 1.4269-1.0594 0-1.984-0.35639-1.9912-4.0497-0.0813-2.6516 1.3712-3.256 1.3676-5.9683-0.035-2.7074-1.4001-3.0786-1.4027-3.607-0.0257-0.70917 1.8481-2.9852 2.0279-3.6072 0.28497-0.24538-0.6875-0.54466-3.6978-0.66507-6.6895-0.12041-2.9917-0.46306-5.8345-0.76146-6.3173-0.29839-0.48281 0.37704-1.1183 1.501-1.4122 1.3052-0.34133 2.2702-1.6718 2.671-3.6827 0.34514-1.7316 1.3174-5.3172 2.1607-7.9681s1.6567-7.1509 1.8077-10 0.81137-6.5302 1.4674-8.1802c0.65607-1.65 2.0147-6.15 3.0192-10 4.5401-17.401 5.0369-20.992 5.0343-36.392-2e-3 -12.523-0.38416-16.717-2.0497-22.5-1.1259-3.9093-2.4446-8.0078-2.9303-9.1078s-1.4232-3.8-2.0832-6-1.6417-4.5568-2.1816-5.2373c-0.53985-0.68049-0.74137-1.8632-0.44782-2.6281s0.0809-1.8437-0.47247-2.3971c-0.5534-0.5534-1.2296-3.8707-1.5027-7.3718s-0.74539-7.0407-1.0496-7.8657-0.50884-9.2458-0.45471-18.713c0.0579-10.12-0.30011-17.459-0.86875-17.811-0.59259-0.36624-0.61706-1.252-0.0632-2.2871 0.78839-1.4732 2.1555-8.6217 2.5176-13.165 0.0668-0.83851 0.6107-2.4246 1.2086-3.5246 0.59786-1.1 1.6352-4.244 2.3051-6.9867 0.66994-2.7427 1.6622-5.5218 2.205-6.1758s0.84698-1.8057 0.676-2.5593c-0.17098-0.75358 2.1641-3.7013 5.1891-6.5505s6.6857-6.316 8.1348-7.704c1.4492-1.388 3.1366-2.5237 3.75-2.5237 0.61334 0 1.1152-0.47537 1.1152-1.0564s1.3559-2.2948 3.0132-3.8085l3.0132-2.7521-3.468-1.6538c-1.9074-0.90957-4.1279-2.9082-4.9344-4.4415s-2.3548-3.5305-3.4405-4.4383c-1.0857-0.90781-2.293-3.5381-2.6827-5.8451-0.63719-3.7715-0.40673-4.5128 2.285-7.3494 1.6465-1.7352 3.2828-4.1175 3.6362-5.2941 0.97771-3.2551 14.85-16.355 19.546-18.458 6.3551-2.8453 12.14-4.1956 13.244-3.0916 1.2075 1.2075 4.7783 0.33443 4.8189-1.1782 0.0167-0.62335 0.48908-0.34587 1.0497 0.61663 0.5606 0.9625 1.974 1.75 3.1408 1.75s2.832 0.62807 3.7003 1.3957c0.86831 0.76764 3.7774 2.133 6.4645 3.0342 8.8471 2.967 13.265 7.9117 16.408 18.363 4.0557 13.489 4.2665 14.736 3.0693 18.171-0.92014 2.6395-0.826 3.8903 0.50246 6.6761 2.2844 4.7906 2.0939 8.5923-0.51215 10.22-1.7335 1.0826-1.8779 1.511-0.75 2.2252 0.76828 0.48647 3.0479 0.89138 5.0658 0.8998 2.0179 8e-3 4.9429 0.67719 6.5 1.4862s5.756 2.6533 9.331 4.0986 8.525 3.4621 11 4.4819 8.55 3.0192 13.5 4.443 11.25 3.5128 14 4.642c5.3105 2.1806 6.7085 2.6258 18.5 5.8904 6.7234 1.8615 23.092 3.2995 37.5 3.2944 7.8092-3e-3 33.028-2.4908 34.791-3.4324 0.98487-0.52608 2.248-0.67391 2.8068-0.32849 1.45 0.89614 6.0982-0.43451 5.4097-1.5486-0.31603-0.51135 0.18014-3.2372 1.1026-6.0575 2.3492-7.1824 4.3586-7.8942 13.053-4.6239 3.7605 1.4145 10.597 3.2684 15.193 4.1198 4.5955 0.85142 13.146 2.8794 19 4.5067 11.918 3.3126 26.682 7.0433 27.874 7.0433 1.6131 0 3.4718-6.0634 2.6931-8.7854-1.3057-4.5645-1.386-7.5535-0.24001-8.9344 0.80861-0.97432 0.69066-1.7688-0.45271-3.0489-1.1448-1.2818-1.5564-4.0676-1.5855-10.731-0.0216-4.95-0.26273-15.75-0.53587-24s-0.26644-15.788 0.0149-16.75c0.79901-2.7337 5.8042-2.2727 7.7617 0.71482 2.1266 3.2455 2.0382 5.1924-0.32755 7.218-1.4053 1.2032-1.6916 2.1322-1.0352 3.3587 0.49906 0.9325 0.6442 1.9586 0.32253 2.2803s-0.27888 2.2158 0.0951 4.2093l0.67994 3.6244 4.1901-0.65815c2.3046-0.36198 5.623-1.1517 7.3743-1.7549 2.3508-0.80968 3.5465-0.79598 4.5687 0.0524 1.0012 0.83091 15.071 1.152 50.816 1.1598 27.187 6e-3 50.556-0.032 51.931-0.0842s4.3-0.0473 6.5 0.0111c6.6765 0.17703 37.931 1.1144 39 1.1697 3.0257 0.15642 14.641-1.0202 15.537-1.5739 1.5725-0.97183 5.9633 2.2937 5.9633 4.435 0 1.0264-0.87069 2.9285-1.9349 4.227-1.5584 1.9014-2.288 2.152-3.75 1.2875-0.99832-0.59028-7.2151-1.2046-13.815-1.3652-16.855-0.41013-111.74-0.62331-119-0.26736-6.0824 0.29822-20.721-0.42902-25.75-1.2792-2.1777-0.36817-2.75-0.0794-2.75 1.3876 0 1.0189-0.5625 2.3029-1.25 2.8533-1.5664 1.2541-10.839 0.80197-13.574-0.6619-1.1243-0.6017-2.7883-1.094-3.6978-1.094-1.3829 0-1.5398 0.67369-0.95839 4.1152 0.45205 2.6757 0.24879 4.9494-0.58108 6.5-0.95484 1.7841-1.0003 2.9516-0.18039 4.6348 0.65664 1.3481 1.0204 7.4611 0.90741 15.25-0.10436 7.196 0.26309 13.893 0.82304 15 0.55636 1.1 1.0795 2.1429 1.1624 2.3175 0.083 0.17464 10.883 0.20087 24 0.0583s25.797-0.22769 28.178-0.18915c5.1034 0.0826 7.0919 1.4995 5.2385 3.7327-1.0677 1.2865-4.2233 1.4175-21.802 0.905-14.815-0.43189-20.364-0.29244-19.874 0.49946 0.37346 0.60426 2.3507 1.4041 4.3939 1.7774 6.0379 1.1031 8.2308 2.1938 7.6185 3.7894-0.30702 0.80008-1.1764 1.6919-1.932 1.9819-1.4997 0.5755-12.872-2.324-21.259-5.4205-2.9081-1.0736-5.6081-1.9522-6-1.9524s-0.57703 15.862-0.41147 35.25c0.24559 28.758 0.0468 35.596-1.0792 37.127-1.1688 1.5891-1.7258 1.6917-3.6359 0.66939l-2.2557-1.2072 0.68001-19.669c0.37402-10.818 0.81285-25.069 0.97519-31.669s0.62226-13.013 1.022-14.252c0.62289-1.9299 0.19273-2.4752-3.007-3.8122-4.0003-1.6714-6.5004-1.3392-6.5004 0.8639 0 0.74932-1.0898 1.9456-2.4217 2.6585-2.0965 1.122-3.0329 1.0002-6.9726-0.90696-5.0311-2.4355-7.2198-2.0672-5.6084 0.9438 2.6442 4.9408-0.64947 11.005-5.9772 11.005-1.5961 0-3.1801-0.45-3.5201-1s-1.8914-1-3.4477-1c-2.4261 0-2.9206 0.48471-3.4673 3.3986-0.35067 1.8692-1.5683 4.5818-2.7058 6.0279-2.3707 3.0138-8.7617 6.5152-10.661 5.8407-0.70513-0.25036-2.428 0.29568-3.8287 1.2134-3.8384 2.515-9.8645 1.2164-12.127-2.6133-1.5299-2.59-2.2372-2.9218-5.6768-2.663l-3.9291 0.29565-1.3939 7c-0.76667 3.85-2.0258 7.6453-2.7981 8.434-1.6893 1.7253-12.944 2.7266-14.717 1.3094-1.967-1.5726-13.796-3.2758-27.586-3.9723-15.386-0.77705-35.726-0.65799-37.142 0.2174-1.8077 1.1172-16.622-2.4729-22.402-5.429-6.4327-3.2898-10.015-4.653-17.502-6.6606-2.9622-0.79429-9.5838-3.459-14.715-5.9215s-9.5734-4.4773-9.8726-4.4773c-0.29917 0-0.12401 0.7875 0.38923 1.75 5.9212 11.104 8.0588 27.901 5.9818 47.004-0.67296 6.1897-0.94411 11.533-0.60255 11.875s3.0023-0.94615 5.9128-2.8616c8.976-5.9073 9.947-6.2755 11.381-4.3148 1.0157 1.3891 1.6436 1.4935 3.3832 0.56253 4.1269-2.2086 11.58-3.9934 16.721-4.0041 4.1611-9e-3 5.4877 0.40951 6.6746 2.104 2.5928 3.7017-0.20403 7.2821-8.8679 11.352-2.75 1.292-7.489 4.5886-10.531 7.3258-4.4256 3.982-5.8882 6.1096-7.3178 10.645-2.5586 8.1168-0.79424 14.022 4.0393 13.52 3.6561-0.38006 4.4469 0.0551 4.1292 2.2721-0.37797 2.6376-4.3974 4.3439-8.0644 3.4235-1.7257-0.43311-3.1956-2.059-4.6404-5.1328-2.6627-5.6646-2.6606-8.9865 0.01-16.124 2.534-6.7729 10.358-14.84 19.113-19.707 3.156-1.7543 5.7435-3.5901 5.75-4.0795 0.0179-1.3427-10.046 0.0139-13.641 1.8388-1.7338 0.88015-3.383 2.2012-3.6648 2.9356-0.28697 0.74782-2.8597 1.6335-5.8476 2.013-6.6216 0.84118-11.835 2.4623-11.835 3.68 0 0.50735-1.125 0.92245-2.5 0.92245-2.2025 0-2.5132 0.44624-2.6109 3.75-0.28314 9.5727 0.45817 18.212 2.1185 24.687 0.99589 3.8844 2.1083 9.5376 2.472 12.563 0.77876 6.4774 3.2278 19.237 4.5106 23.5 0.49647 1.65 1.6248 5.7 2.5073 9 0.88253 3.3 2.5382 9.375 3.6793 13.5 1.1411 4.125 2.1834 8.85 2.3161 10.5 0.82059 10.197 0.73246 13.542-0.43086 16.35-1.0361 2.5013-1.8972 3.1496-4.1833 3.1496-1.5833 0-2.8787 0.38812-2.8787 0.8625 0 0.47437 1.3259 2.6119 2.9464 4.75 1.6205 2.1381 3.7866 5.0125 4.8136 6.3875 1.027 1.375 2.4732 4.075 3.2139 6s1.7245 3.9275 2.1864 4.45c0.46184 0.5225 0.83972 1.6602 0.83972 2.5282 0 2.5271 9.0789 20.157 12.283 23.851 0.79685 0.91883 1.7301 2.8574 2.0739 4.3079 0.34379 1.4505 2.4292 5.0384 4.6343 7.9731 2.2051 2.9347 4.0092 5.8749 4.0092 6.5338 0 0.65889 1.9306 6.071 4.2902 12.027s6.0212 16.229 8.1369 22.829c2.1156 6.6 5.0968 15.6 6.6249 20s3.5015 10.994 4.3854 14.653c0.88393 3.659 2.463 9.284 3.5091 12.5 1.0461 3.216 2.2156 7.6473 2.5988 9.8473 0.38329 2.2 1.8774 5.2644 3.3202 6.8098 2.0686 2.2157 2.7656 4.2245 3.2963 9.5 0.37018 3.6796 0.99038 8.798 1.3782 11.374 0.63364 4.2089 0.44547 4.9248-1.8546 7.0564l-2.5598 2.3723 3.1872 1.7078c2.2413 1.201 6.1205 1.7947 13.072 2.0007l9.8846 0.29291 1.8654 2.3036c1.026 1.267 1.8654 3.3421 1.8654 4.6113 0 2.9878 6.0201 6.9166 9.1004 5.9389 2.7636-0.87714 100.4-0.89624 126.4-0.0247 11 0.36878 27.875 0.75737 37.5 0.86354l17.5 0.19304 0.31278-3.2423c0.17203-1.7832-0.61-6.6058-1.7378-10.717-2.1836-7.9593-1.7638-11.679 1.4578-12.915 1.3292-0.51005 1.5466-1.3894 1.0277-4.1557-0.64322-3.4286-1.7419-48.591-1.69-69.47 0.10376-41.765 0.13316-42 5.2477-42 4.1632 0 5.4172 2.2701 3.9532 7.1563-0.90429 3.0183-1.2002 17.373-1.1272 54.677l0.099 50.584 1.9785 2.106c2.3583 2.5103 2.5359 6.8987 0.47845 11.823-0.825 1.9745-1.5 4.9333-1.5 6.5751 0 1.6418-0.52779 4.1434-1.1729 5.5592-0.71521 1.5697-0.81277 2.9257-0.25 3.475 0.50758 0.49546 10.598 1.0178 22.423 1.1608l21.5 0.25996 0.30619-2.086c0.16841-1.1473 1.1809-2.3147 2.25-2.5943 1.2458-0.32578 1.9438-1.3725 1.9438-2.9148 0-5.9403 11.928-11.195 20.661-9.1012l3.8385 0.92005 5.7234-4.0498c3.1479-2.2274 5.7354-4.5752 5.75-5.2174 0.0146-0.64221 1.7034-1.9922 3.7529-3 2.3656-1.1633 3.9391-2.7452 4.3092-4.3324l0.58284-2.5 4.712 0.33462c3.9214 0.27848 5.0192-0.0448 6.543-1.9265l1.831-2.2612-1.6022-2.8333c-0.91039-1.61-2.3112-2.7211-3.2444-2.5734-1.8971 0.30018-5.8578-2.9516-5.8578-4.8093 0-0.69254 1.4625-2.7716 3.25-4.6202 1.7875-1.8486 5.6905-6.1743 8.6732-9.6126 3.7097-4.2763 5.7477-5.9271 6.45-5.2248 2.0054 2.0054 5.1043 1.1042 6.4194-1.8668 0.70446-1.5915 2.2768-4.0091 3.4941-5.3725 5.3747-6.0198 7.7133-9.0021 7.7133-9.8367 0-0.49344 0.60277-0.89717 1.3395-0.89717 0.73672 0 1.8142-1.0125 2.3943-2.25 0.58014-1.2375 4.4899-6.2371 8.6883-11.11 8.478-9.8405 14.039-17.512 13.26-18.291-0.821-0.82099-24.058 7.4467-25.17 8.9556-0.55622 0.75438-1.6863 1.158-2.5113 0.89693-0.825-0.26108-1.1615-0.11209-0.74782 0.33107 1.0351 1.1088-2.1734 4.4681-4.2676 4.4681-0.93801 0-3.2308 1.0253-5.095 2.2785-10.442 7.019-17.89 10.033-17.89 7.2406 0-0.83548-0.4541-1.519-1.0091-1.519-1.6157 0-6.9909 5.5692-6.9909 7.2432 0 0.8397-1.125 2.2639-2.5 3.1648-1.375 0.90094-2.5 2.041-2.5 2.5335 0 0.49249-1.6488 2.7321-3.664 4.9769-3.8994 4.3437-7.9982 5.3983-10.283 2.6458-0.65535-0.78965-2.5409-1.7321-4.19-2.0943-1.6492-0.36221-3.2191-1.2336-3.4888-1.9363s-2.4893-2.7133-4.9324-4.4678-4.4421-3.9621-4.4421-4.9057c0-0.9436-0.94382-2.5238-2.0974-3.5115-1.255-1.0745-1.9019-2.5435-1.6106-3.6572 0.43311-1.6562-0.0445-1.8246-4.3336-1.5281-2.6512 0.18332-5.3014 0.63061-5.8894 0.99399-0.58795 0.36337-1.069-0.0409-1.069-0.89834 0-0.85746-0.45-1.559-1-1.559s-1.0124-0.5625-1.0275-1.25c-0.0151-0.6875-1.5778-2.375-3.4725-3.75s-3.4573-3.1046-3.4725-3.8436c-0.0151-0.73899-0.92753-1.579-2.0275-1.8666-1.2197-0.31895-2-1.364-2-2.6785 0-1.1855-1.2475-3.7206-2.7723-5.6334-1.5248-1.9128-3.3917-5.2778-4.1487-7.4778s-2.4345-5.3925-3.7277-7.0944c-1.2932-1.7019-2.3513-4.436-2.3513-6.0757 0-3.7106 3.629-7.3299 7.3496-7.3299 1.4964 0 3.7603-0.68113 5.0308-1.5136 2.0617-1.3509 2.699-1.3511 5.9276-2e-3 1.9896 0.83132 5.0968 2.8 6.9047 4.375 5.1141 4.4548 9.0772 6.0794 18.981 7.7805 6.7412 1.158 11.897 1.3885 19.487 0.87122 5.676-0.38702 10.32-0.87849 10.32-1.0923s-1.35-2.5828-3-5.2644c-1.65-2.6816-3-5.3186-3-5.86 0-1.7915 3.5789-4.2614 7.0656-4.8763 1.8889-0.33311 5.3068-1.5539 7.5954-2.713 3.5293-1.7874 4.5627-1.9243 6.8072-0.90164 2.8868 1.3153 4.4323 0.80257 10.032-3.3286 1.65-1.2173 5.4812-2.9753 8.5138-3.9067 4.578-1.406 5.8944-2.3547 7.7564-5.59 1.382-2.4014 4.331-5.1594 7.685-7.1874 2.9933-1.8099 10.528-6.4949 16.744-10.411 10.541-6.6411 18.344-10.723 28.487-14.901 3.1044-1.2788 5.4302-1.5406 9-1.0128 6.9894 1.0333 14.386 3.0622 23.787 6.5246l8.2751 3.0479 68.496 0.79342 5.1279-3.1174c7.7693-4.7232 18.035-13.141 21.868-17.933 4.8855-6.1065 9.7599-13.667 9.7599-15.139 0-1.1776-2.002-2.2648-11.25-6.11-2.4736-1.0285-3.75-2.207-3.75-3.4624 0-1.0468 0.53146-2.0804 1.181-2.2969 0.82328-0.27442 0.52169-1.7557-0.99568-4.8901-2.9094-6.01-5.739-8.8829-8.749-8.8829-2.9377 0-4.4363 3.0784-4.4363 9.1128 0 3.0112 0.63838 4.5743 2.6172 6.4082 2.9283 2.7139 2.6252 5.4789-0.60054 5.4789-2.7327 0-5.6989-5.054-6.5353-11.135-0.85793-6.2379 2.1331-13.048 6.5304-14.87 2.6105-1.0813 3.4504-0.91424 7.5849 1.5087 3.2301 1.893 5.146 3.8956 6.2763 6.5605 0.99225 2.3394 2.4922 4.0546 3.8448 4.3967 1.2198 0.30852 3.6406 2.7341 5.3794 5.3902 1.7388 2.6561 4.075 5.3998 5.1916 6.0971l2.03 1.2678 6.3709-7.0499c3.504-3.8775 7.6958-7.7109 9.3151-8.5187 1.6193-0.80782 6.6682-2.251 11.22-3.207 6.1928-1.3008 8.8417-2.3691 10.525-4.2449 3.4305-3.8217 2.8824-5.8222-2.2127-8.076-3.2689-1.446-4.6486-2.7148-5.1577-4.7431-0.60009-2.3909-0.12731-3.2728 3.4627-6.4586 2.3428-2.079 4.1577-4.5908 4.1577-5.754 0-1.1354 0.5625-2.4243 1.25-2.8641s1.7913-1.7722 2.4529-2.9608c0.98121-1.7628 0.93237-2.2649-0.26501-2.7244-0.80737-0.30981-1.9209-1.7546-2.4744-3.2106-1.3044-3.4308-0.17391-4.7728 6.799-8.0715l5.4394-2.5732-0.55351-2.7676c-0.39336-1.9668 5e-3 -3.2726 1.3755-4.5133 1.061-0.96015 1.6881-2.1356 1.3936-2.6121-0.29449-0.47649-2.7221-0.86635-5.3946-0.86635-6.1645 0-8.0228-0.72691-8.0228-3.1384 0-2.8969 2.5401-3.3174 9.071-1.5016 6.844 1.9028 10.103 2.066 11.589 0.58044 0.71931-0.71931 0.93206-11.516 0.66248-33.618-0.33493-27.461-0.16659-32.91 1.0752-34.806 1.1114-1.6962 1.1898-2.5295 0.3198-3.3994-0.83183-0.83183-1.1501-12.277-1.144-41.135l8e-3 -39.982h-2.1318c-1.1725 0-4.3237 0.65965-7.0026 1.4659-5.6516 1.7009-9.119 1.1432-9.9919-1.6071-0.39333-1.2393-1.2208-1.7559-2.2858-1.4272-2.0252 0.62499-50.386 1.6009-108.67 2.193-23.65 0.24025-43.843 0.44676-44.874 0.45891-1.0308 0.0121-2.5171 0.66493-3.3028 1.4506-1.2013 1.2013-1.9371 1.221-4.6258 0.12402-6.5608-2.6769-3.7768-8.1503 4.6541-9.1501 7.0916-0.84101 145.7-1.2709 151.94-0.47124 4.1162 0.52807 5.3653 0.31128 6.8687-1.1921 1.6349-1.6349 2.5823-1.7298 8.5911-0.86092 10.007 1.4471 10.811 1.3562 10.915-1.2338 0.0495-1.2375-0.30698-6.4728-0.79215-11.634-0.72216-7.6823-0.60707-9.9353 0.63471-12.424l1.5168-3.0406-2.1322-2.2696c-1.6676-1.775-1.9898-2.99-1.4789-5.5755 0.35932-1.8183 1.2722-4.1221 2.0286-5.1196 1.199-1.5813 1.8984-1.6728 5.4584-0.71416 2.916 0.78521 4.2246 1.7324 4.5779 3.3136 0.74191 3.3206-0.84493 9.1942-2.515 9.3091-3.3573 0.23105-3.9596 0.4588-3.9596 1.4974 0 0.60075 0.92615 2.2697 2.0581 3.7087 1.8276 2.3234 2.0289 3.7991 1.7973 13.175-0.14345 5.8073 0.082 11.113 0.5009 11.791 0.41895 0.67788 2.2836 1.2325 4.1437 1.2325s3.6488 0.4317 3.9749 0.95932c0.94991 1.537-1.6906 4.9152-5.1103 6.5379-2.5596 1.2146-3.2923 2.2981-3.8884 5.7497-0.78647 4.5542-0.98414 36.82-0.35773 58.393l0.38154 13.14-2 2.2561c-1.2286 1.3859-1.5726 2.4066-0.89181 2.6461 0.6095 0.21448 1.9595 1.0184 3 1.7866 1.5162 1.1193 1.6436 1.6483 0.64181 2.6639-0.6875 0.69703-1.25 2.0773-1.25 3.0673s-0.86339 2.6634-1.9186 3.7186l-1.9186 1.9186 3.5076 3.1744-0.36001 18.744c-0.198 10.309-0.47635 21.782-0.61855 25.494s0.0849 6.75 0.50459 6.75c0.41972 0 2.6152-0.74106 4.8789-1.6468 3.6169-1.4472 5.1294-1.496 12.479-0.40262 4.5996 0.6843 8.8401 1.8193 9.4235 2.5222 0.58334 0.70289 3.0816 1.8438 5.5517 2.5354 4.9733 1.3924 12.714 7.6273 15.03 12.106 0.82068 1.587 2.0919 2.8855 2.8249 2.8855s2.9652-2.3625 4.9604-5.25c6.3332-9.1655 6.997-10.081 13.597-18.75 7.4844-9.8305 8.3023-10.581 13.202-12.113 3.1315-0.97938 4.0011-0.87572 6.1816 0.73685 1.3957 1.0321 3.0367 2.9505 3.6467 4.2631 1.1955 2.5724 0.4849 10.235-1.2625 13.613-1.8743 3.6235-7.1561 9.7081-10.306 11.873-5.6918 3.9109-10.659 8.7735-9.7765 9.5714 0.4801 0.43422 11.673 0.49664 24.873 0.13871 28.318-0.76785 31.872-0.48186 32.311 2.5997 0.5264 3.6977-2.812 4.6481-11.989 3.4131-5.3263-0.71681-8.6091-0.74438-9.8455-0.0827-1.2318 0.65923-2.063 0.65586-2.4745-0.01-0.3409-0.55148-2.6392-1.0027-5.1074-1.0027h-4.4877l1.7967 2.5001c1.4032 1.9525 2.3443 2.3577 4.2967 1.8499 1.375-0.35759 3.175-0.61 4-0.56089 4.0819 0.24294 11.615 1.5529 12.5 2.1738 0.55 0.38575 3.7 1.3 7 2.0316s7.0125 2.2356 8.25 3.3422c1.2472 1.1152 2.25 1.4885 2.25 0.83755 0-1.3981 6.402-1.5718 10.601-0.28763 1.5945 0.48767 5.8242 1.6917 9.3992 2.6755 3.575 0.98387 7.0409 2.197 7.702 2.6959 0.6611 0.49891 2.0511 0.6376 3.089 0.30821 1.0378-0.32939 3.5199 0.0834 5.5158 0.91738 1.9959 0.83395 4.7684 1.5163 6.1611 1.5163h2.5321l0.01-4.25c0-2.3375 0.2925-6.6125 0.6393-9.5l0.6306-5.25-2.8893 0.0108c-1.5891 6e-3 -5.0946 0.67983-7.7899 1.4975-3.5562 1.0788-5.2587 1.1894-6.2062 0.40308-0.7181-0.59596-1.7649-0.79969-2.3263-0.45272-0.5614 0.34696-2.8311 0.14336-5.0438-0.45246-4.2474-1.1437-5.3656-3.6471-2.6397-5.9094 1.8475-1.5333 64.494-1.4436 66.348 0.095 0.6979 0.5792 1.2689 1.8806 1.2689 2.8919 0 1.3457-1.3618 2.2432-5.0785 3.347-8.9429 2.6557-11.922 2.9774-11.922 1.2876 0-1.5274-2.0072-2.7183-4.5818-2.7183-2.2679 0-1.6359 1.8289 0.7535 2.1804 1.1944 0.17575 2.3569 0.88205 2.5833 1.5696 0.5654 1.7168-2.7744 1.5821-4.1448-0.16719-1.4748-1.8826-9.88-4.6388-10.965-3.5955-1.4036 1.3499-0.8363 11.924 0.8177 15.239 0.8453 1.6944 1.5369 3.9051 1.5369 4.9127 0 1.3348 1.2129 2.1374 4.4698 2.9575 2.4583 0.61903 5.0288 1.7992 5.7122 2.6226 1.0159 1.224 0.8846 1.7597-0.7197 2.9368-2.1064 1.5454-2.5009 1.4942-9.6765-1.2549-2.5929-0.99336-4.9301-1.5903-5.1938-1.3266-0.2638 0.26376-0.1 2.2674 0.3648 4.4524 0.4645 2.1851 1.0945 20.848 1.4001 41.473s0.9634 39.123 1.4617 41.107c0.7368 2.9327 0.5558 4.054-0.9687 6l-1.8749 2.3933-1.4875-1.9411c-0.8181-1.0676-1.4875-3.1301-1.4875-4.5833 0-1.4532-0.3061-2.9483-0.6801-3.3224-0.629-0.629-0.8733-11.75-1.3649-62.153-0.1511-15.494-0.4695-19.323-1.7252-20.75-0.8469-0.9625-2.3149-1.75-3.2623-1.75-0.9475 0-2.2828-0.675-2.9675-1.5s-2.0898-1.5-3.1224-1.5c-1.0327 0-2.7389-0.86133-3.7917-1.9141-1.5772-1.5773-2.576-1.7648-5.6761-1.0656-2.6194 0.59077-4.9993 0.41724-7.8359-0.57138-2.2406-0.78092-4.9739-1.4332-6.0739-1.4495-3.2449-0.048-9.7597-2.6342-11.037-4.3815-1.3635-1.8648-3.4626-2.155-3.4626-0.47874 0 1.5904-9.5768 0.36804-12.591-1.6072-1.2861-0.84267-3.8167-1.5429-5.6235-1.556-5.5987-0.0406-11.206-1.7798-13.041-4.0446-1.4547-1.7956-2.017-1.9503-3.2797-0.90233-1.1316 0.93918-2.1263 0.9903-3.864 0.19858-1.287-0.58642-4.5362-1.3849-7.2204-1.7744s-5.3303-0.97815-5.8803-1.308c-1.8315-1.0986-10.976-4.0796-12.617-4.1127-0.9858-0.0199-2.4259 1.8209-3.6905 4.7174-1.1406 2.6125-2.9672 6.325-4.0591 8.25-4.2216 7.4426-10.389 20.561-13.101 27.864-1.5592 4.1998-4.6795 12.066-6.934 17.481-2.2545 5.415-4.0991 10.416-4.0991 11.112s-1.3339 4.5017-2.9642 8.4553c-1.6303 3.9536-3.2425 8.853-3.5827 10.888-0.34016 2.0346-1.4786 6.3993-2.5299 9.6993-1.0513 3.3-3.0614 11.625-4.467 18.5-1.4056 6.875-3.2322 15.425-4.0592 19s-1.8745 8.975-2.3277 12c-0.45322 3.025-1.2963 7.3-1.8734 9.5-1.3528 5.1567-3.0603 21.699-4.3306 41.955-0.55342 8.8249-1.2284 18.07-1.4999 20.545-0.6124 5.5817-0.70557 13.077-0.47595 38.289 0.0991 10.884-0.0875 20.222-0.41479 20.752-0.32726 0.52952 0.55706 1.4008 1.9652 1.9361 3.1526 1.1986 3.2363 2.3498 0.31017 4.2671-1.6043 1.0512-2.248 2.4473-2.2431 4.865l7e-3 3.3908 4.9931-0.10075c23.951-0.48329 149.67-0.32169 157.78 0.20283l10.406 0.67276 0.5185-1.9828c0.2852-1.0906-0.1625-5.1549-0.995-9.0318-0.8324-3.8769-1.2362-7.7715-0.8973-8.6546 0.3412-0.88903 1.7459-1.6056 3.1475-1.6056 2.6101 0 3.1877-0.89256 1.6501-2.55-0.4847-0.5225-1.1406-13.225-1.4575-28.227s-0.8666-27.747-1.2216-28.321-0.3465-3.0373 0.019-5.4733c0.5657-3.7728 1.0073-4.429 2.9804-4.429 1.274 0 2.7745 0.5625 3.3345 1.25 0.6388 0.78417 1.0561 13.173 1.1199 33.244l0.1016 31.994 2.0968 1.5816 2.0967 1.5816-1.9595 6.4247c-1.0777 3.5336-2.254 8.051-2.6139 10.039l-0.6545 3.6139 135.77-6e-3c172.72-8e-3 191.14 0.13638 217.27 1.7032 11.825 0.70912 21.71 1.1066 21.966 0.88319 0.2561-0.22336-0.2378-3.1065-1.0977-6.407l-1.5634-6.0009 1.8371-1.2868 1.8372-1.2868-0.1428-16.769-0.1428-16.769-3.1639 0.51344c-2.4431 0.39645-3.4522 0.052-4.4288-1.5119-0.6957-1.114-0.8905-2.3761-0.4328-2.8048 0.4577-0.4287 5.0538-0.93815 10.214-1.1321 8.1417-0.30604 9.5295-0.11758 10.5 1.4258 1.4227 2.2624-0.5282 3.6844-5.0848 3.7062l-3.2032 0.0153 0.2032 15.95c0.1426 11.19 0.5762 16.323 1.4532 17.2 1.6771 1.6769 1.5755 5.135-0.2813 9.5791-0.8423 2.0158-1.317 4.2236-1.055 4.9063 0.3711 0.96723 10.58 1.1997 46.236 1.0529l45.76-0.18845 0.5449-2.2817c0.2998-1.2549 0.4105-9.2424 0.2461-17.75l-0.3-15.469h-2.4511c-1.821 0-2.4511-0.53823-2.4511-2.0936 0-1.2188 0.7971-2.3021 1.9075-2.5924 1.0492-0.27436 2.1321-1.3572 2.4064-2.4064 0.2837-1.0847 1.3726-1.9076 2.5243-1.9076 1.6308 0 1.9547-0.53573 1.6625-2.75-0.1996-1.5125-0.3939-3.14-0.4318-3.6166-0.038-0.47665-0.9191-0.6443-1.9582-0.37257-1.0391 0.27174-2.4547 0.14464-3.1457-0.28244-1.8369-1.1352-0.4509-3.7708 2.1829-4.1508 1.4596-0.21061 2.4779-1.2201 2.8521-2.8276 0.3532-1.5172 1.3971-2.6186 2.6556-2.8018 1.7769-0.25862 2.0322-0.90265 1.7841-4.5-0.1593-2.309-0.379-12.209-0.4882-22-0.1515-13.571-0.5259-18.129-1.5751-19.179-1.7188-1.7188-1.8026-6.2105-0.1264-6.7693 0.9499-0.31664 1.25-5.7389 1.25-22.583v-22.167l-2 0.0435c-1.1 0.0239-3.9125 0.41351-6.25 0.86571-3.7914 0.73345-4.25 0.61813-4.25-1.0686 0-1.293 0.9311-2.077 2.9454-2.4798 5.0684-1.0137 4.321-3.9577-2.7185-10.707-6.2979-6.0386-7.2426-8.2081-3.523-8.0899 1.7409 0.0553 1.9008-0.33521 1.2288-3-0.8374-3.3204-4.6527-18.855-6.0524-24.643-0.4761-1.9687-2.1064-5.1899-3.6229-7.1581-3.6336-4.7158-9.2943-5.8045-15.012-2.8874-2.1334 1.0884-4.4664 2.6868-5.1844 3.552-3.2703 3.9404-4.1949 0.28467-0.9662-3.82 5.7019-7.2487 15.156-8.0853 21.956-1.9428 4.4916 4.058 7.1581 10.81 10.006 25.336 1.5737 8.0277 2.5656 10.892 4.2126 12.164 2.0469 1.5809 4.8584 9.9012 4.8339 14.306-0.013 2.2892 1.6229 3.5735 3.5898 2.8187 1.1521-0.44208 1.2523-7.8033 0.6213-45.657-1.2094-72.55-0.5958-204.38 1.1724-251.89l0.4002-10.755-2.693 0.64509c-1.4811 0.3548-3.905 1.2553-5.3862 2.0011-2.6606 1.3395-4.5929 0.44432-3.3571-1.5553 1.0168-1.6453-5.1298-2.2274-11.439-1.0833-4.6955 0.85147-6.5081 0.83415-7.6007-0.0726-1.0879-0.90284-1.1604-1.5213-0.3-2.5581 0.7756-0.93453 3.5142-1.3673 8.6521-1.3673 5.8039 0 7.7898-0.37268 8.7129-1.6351l1.1956-1.6351 5.2294 1.737c2.8762 0.95531 5.5012 1.4652 5.8334 1.133 0.3321-0.33214 0.6405-12.787 0.6852-27.677l0.081-27.073-2.9129 0.5826c-3.3007 0.66015-6.5871-1.6-6.5871-4.5301 0-1.3877 0.9496-1.8563 4.2452-2.095l4.2452-0.3075 0.5125-2.9878c0.6463-3.7677 3.9971-4.8453 3.9971-1.2855 0 2.4197 1.6466 4.7733 3.3393 4.7733 0.5521 0 0.6613-2.1643 0.265-5.25-0.6875-5.3531-2.9228-46.395-2.873-52.75 0.015-1.925 0.3366-8.45 0.7145-14.5 0.5392-8.6341 1.0766-11.398 2.4987-12.85 2.7032-2.7608 5.6918-0.76207 6.5619 4.3885 0.8115 4.8032 2.8456 4.8189 3.3151 0.02545 0.2287-2.3343-0.3272-3.9729-1.9243-5.673-2.903-3.0902-5.9864-3.0279-9.8205 0.19831l-3.0764 2.5889v-5.9195l7.9862-0.69665c4.3925-0.38316 8.4425-0.41471 9-0.070108 0.5576 0.3446 1.0138 4.3882 1.0138 8.9857 0 8.9945-0.7143 12.603-2.0629 10.421-0.6316-1.0219-1.0921-1.0144-2.3609 0.0386-1.1407 0.94672-1.5762 0.98172-1.5762 0.12668 0-0.6498-0.4328-0.91397-0.9618-0.58704-0.6137 0.37928-0.6045 1.5342 0.025 3.1911 0.543 1.4282 0.7348 3.392 0.4263 4.3641-0.3649 1.1496 0.3253 2.4646 1.9745 3.7618 2.3125 1.819 3.7609 6.082 1.6161 4.7564-0.5056-0.31252-1.5694 0.08187-2.364 0.87641-1.0923 1.0923-1.6021 5.6677-2.0905 18.759-1.2611 33.806-1.2659 33.746 2.8931 35.641 1.3644 0.62168 2.4665 1.7025 2.449 2.4018-0.056 2.2504-2.626 4.7714-4.8636 4.7714-1.7863 0-2.0024 0.32238-1.2096 1.8039 0.5564 1.0395 0.5992 2.3964 0.1012 3.2023-0.4753 0.7691-0.6319 1.7742-0.348 2.2336 0.614 0.99356 0.535 16.132-0.1802 34.51-0.2836 7.2875-0.1674 13.252 0.2582 13.255 0.4256 3e-3 2.9537-0.77642 5.618-1.7314l4.8442-1.7364 1.377 1.8832c1.2382 1.6933 2.2875 1.8186 10.406 1.2423l9.0288-0.64088v1.966c0 1.0813-1.1694 2.7323-2.5987 3.6688-2.2915 1.5014-3.3017 1.5576-8.5441 0.47474-3.27-0.6754-6.6235-1.4882-7.4521-1.8062-1.1858-0.45504-1.3714-0.0389-0.8712 1.954 0.5016 1.9982 0.1982 2.671-1.4387 3.1905-1.2365 0.39247-2.976 0.0267-4.3072-0.90571-1.2277-0.86023-3.1893-1.5641-4.3588-1.5641h-2.1263l-0.013 60.25c-0.029 135.71-0.2802 223.5-0.6968 243.75l-0.093 4.5 23.652-0.315c23.306-0.31039 32.437 0.54876 31.628 2.976-0.8149 2.4446-8.237 3.7846-17.78 3.21-5.225-0.31458-13.325-0.6868-18-0.82715s-10.919-0.61453-13.876-1.0537l-5.3759-0.79853 0.6557 24.404c0.3607 13.422 0.8879 44.879 1.1715 69.904 0.2837 25.025 0.7271 47.075 0.9854 49 0.2582 1.925 0.6236 6.2 0.8119 9.5l0.3424 6 2.8924 0.63169c1.5908 0.34742 6.0424 0.68762 9.8924 0.75599 3.85 0.0684 10.712 0.41331 15.25 0.76653 7.1742 0.55848 8.25 0.88692 8.25 2.5188 0 3.0913-4.6187 4.0385-20.417 4.1869-10.681 0.10035-15.031 0.48395-15.32 1.351-0.3079 0.92418-6.0093 1.0742-24.083 0.63363-13.024-0.31746-24.188-0.98451-24.808-1.4823-0.6539-0.52456-2.1255-0.53969-3.5-0.036-2.6348 0.96559-40.311 0.63828-41.933-0.36429-0.5643-0.34872-1.6524-0.11406-2.4182 0.52145-1.0446 0.86697-1.9236 0.87114-3.5201 0.0167-1.521-0.814-2.4968-0.83256-3.4216-0.0651-0.8555 0.71001-5.9993 0.8939-15.186 0.5429-7.6408-0.29193-19.627-0.52711-26.636-0.52261-7.2478 5e-3 -13.797-0.47185-15.186-1.105-1.3509-0.61554-3.2539-0.76492-4.2568-0.33415-0.9976 0.42844-6.3138 0.90592-11.814 1.061-5.5 0.15514-16.412 0.5021-24.25 0.77104s-14.25 0.18812-14.249-0.1796c3e-4 -0.36771-6.4122-0.68787-14.25-0.71147-7.8379-0.0236-15.151-0.13061-16.251-0.2378-1.1-0.1072-6.6647 0.0364-12.366 0.31904-7.168 0.3554-10.804 0.15088-11.784-0.66293-1.0921-0.90634-1.9713-0.8808-3.8248 0.11113-1.4957 0.80053-3.8847 1.0517-6.312 0.66353-2.1479-0.34347-4.2306-0.29924-4.6281 0.0983-1.0433 1.0433-6.6602 1.1823-6.0216 0.14899 0.5165-0.83572-2.7711-0.4706-9.0634 1.0066-1.65 0.38735-4.35 0.40538-6 0.0401-1.65-0.36531-5.5779-0.43906-8.7286-0.16388-4.0376 0.35264-6.2257 0.09-7.4126-0.88989-1.3084-1.0801-1.7779-1.1114-2.1048-0.14022-0.5837 1.7344-4.7452 1.568-6.254-0.25-1.4389-1.7337-4-2.0055-4-0.42447 0 0.64126-1.7325 0.96899-4.2908 0.81167-2.3599-0.14513-4.7224-0.0326-5.25 0.25011-1.9568 1.0485-7.8293 0.88181-8.5239-0.24192-0.544-0.88025-2.2634-0.88568-7.0769-0.0224-3.6579 0.65604-11.243 0.92948-17.858 0.64381-6.325-0.27311-28.825-0.52323-50-0.55581-21.175-0.0326-43.82-0.37465-50.321-0.76014s-12.513-0.31359-13.359 0.15978c-0.9147 0.51193-2.4052 0.41325-3.6788-0.24354-2.8189-1.4538-78.088-1.9634-97.141-0.6577-17.308 1.1861-34.316 0.93778-36.081-0.5268-0.74546-0.61868-2.3104-0.78444-3.5854-0.37976-1.2444 0.39496-10.604 0.83255-20.798 0.97243-10.194 0.13987-19.773 0.57769-21.285 0.97292s-2.7503 0.33231-2.7508-0.13981c-4.2e-4 -0.47213-2.8129-0.74901-6.25-0.61529-3.4371 0.13372-21.324 0.48547-39.749 0.78168-18.425 0.2962-34.4 0.60221-35.5 0.68002-1.1 0.0778-8.525-0.20712-16.5-0.63317-11.868-0.63405-15.748-0.48116-21.379 0.84235-4.587 1.0782-7.2745 1.2886-8.0664 0.63141-0.78219-0.64915-2.4847-0.62742-4.9876 0.0637-2.09 0.57709-4.9852 0.74486-6.4336 0.37282-4.5503-1.1688-20.366-1.3331-22.772-0.23667-1.6505 0.752-2.6934 0.7239-3.6853-0.0993-0.76178-0.63222-4.4821-1.1254-8.2796-1.0976-23.351 0.17087-34.321 0.70905-37.685 1.8487-2.3102 0.78271-4.2614 0.9328-5 0.38461-1.9232-1.4274-19.239-0.91836-21.093 0.6201-1.0311 0.85571-2.5665 1.065-4.3554 0.59379-1.5196-0.40031-4.207-0.83011-5.9719-0.95511-1.7649-0.125-3.9024-0.80283-4.75-1.5063-1.2141-1.0076-1.8523-1.0208-3.0075-0.062-1.8543 1.5389-13.122 2.5035-13.932 1.1927-0.33123-0.53595-2.4477-0.72692-4.7033-0.42438-2.7135 0.36396-4.361 0.12944-4.8694-0.69316-0.59435-0.96169-1.9868-0.99885-6.1488-0.1641-5.9124 1.1858-9.2084 1.3405-21.88 1.0268-4.675-0.11574-23.8-0.14172-42.5-0.0577-36.552 0.16417-66.882-0.35227-68.191-1.1611-1.4576-0.90082-21.558-2.1922-33.309-2.14-13.464 0.0598-36.147 1.2622-36.837 1.9527-0.26337 0.26337-0.97143 0.0701-1.5735-0.42958-0.65684-0.54513-3.0912-0.53545-6.0868 0.0242-3.3108 0.61852-5.1062 0.5906-5.3307-0.0829-0.45869-1.3761-6.4838-1.2861-9.6218 0.14364-1.945 0.8862-3.5039 0.87161-6.6199-0.062-2.6123-0.78266-4.4985-0.87936-5.2529-0.26931-1.4711 1.1895-6.814 1.2447-8.2516 0.0852-1.071-0.86385-7.8328-0.39755-9.5406 0.65793-0.49452 0.30563-1.1691-0.14783-1.499-1.0077-0.66659-1.7371-3.0331-2.1176-3.5526-0.5712-0.21493 0.63974-2.8198 0.68768-7.3333 0.13497-3.9306-0.48133-7.1462-0.4779-7.3333 8e-3 -0.44923 1.1658-4.1667 1.1088-4.1667-0.0639 0-0.5109-1.573-0.8484-3.4955-0.75-1.9225 0.0984-3.4975 0.41235-3.5 0.69767-7e-3 0.7856-44.697 0.2891-45.992-0.51096-0.61946-0.38285-2.2171-0.4223-3.5504-0.0877-3.6208 0.90877-36.134 1.3713-40.484 0.57593-2.0756-0.37954-4.3984-0.34052-5.1618 0.0867-1.9158 1.0721-8.9394 1.1475-41.317 0.44328-15.4-0.33495-28.9-0.53758-30-0.45028-6.917 0.54893-80.321-0.65255-94-1.5386-6.8672-0.44481-14.945-0.26195-21.5 0.48671-5.775 0.65957-14.325 1.6321-19 2.1611-4.675 0.52906-15.387 0.92611-23.804 0.88235-8.4174-0.0438-16.067 0.32194-17 0.81267-0.93221 0.49071-6.1953 1.208-11.695 1.5939-8.8896 0.62378-10.232 0.49762-12.093-1.1362zm1602.5-18.042c0.695-3.1876 1.8962-6.7923 2.6694-8.0105 1.549-2.4406 1.9281-9.2852 0.5143-9.2852-1.0825 0-4.377 7.5683-4.7463 10.903-0.1463 1.3219-0.5529 3.1219-0.9035 4-1.7758 4.4481-1.5478 9.8877 0.3648 8.7056 0.4607-0.28476 1.4063-3.1258 2.1013-6.3134zm-886.51 2.1866c0.317-1.263 0.87085-3.0638 1.2308-4.0018 0.56548-1.4736 0.20635-1.6069-2.6431-0.98108l-3.2975 0.72425 0.67972-3.3618c0.37384-1.849 0.94228-11.237 1.2632-20.862 0.32093-9.625 0.98137-18.258 1.4676-19.184 1.0988-2.0931 1.1794-20.816 0.0897-20.816-1.0315 0-7.4836 8.5619-9.6082 12.75-0.90677 1.7875-2.1023 3.25-2.6567 3.25-0.55442 0-1.9255 1.555-3.0469 3.4557s-2.9076 3.7314-3.9693 4.0684c-1.0617 0.33698-3.092 3.068-4.5116 6.0688-1.7855 3.7743-3.0946 5.3715-4.247 5.1816-1.1006-0.18136-1.7811 0.54146-2.0056 2.1302-0.49027 3.4693-6.7124 12.106-10.648 14.781-1.8534 1.2594-3.65 3.1724-3.9924 4.2512-0.9534 3.0039-4.1399 3.5079-7.1597 1.1324-1.4466-1.1379-3.2445-2.0689-3.9954-2.0689-1.8655 0-1.72 2.9505 0.25312 5.1307 0.89005 0.98349 1.8362 3.7189 2.1025 6.0787l0.48427 4.2906 53.634 0.27869zm62.469 1.6046c43.204 0.15815 131.48-0.0943 131.68-0.37655 0.0825-0.11564 0.4369-1.7156 0.78763-3.5554 0.53317-2.797 0.31088-3.4306-1.3564-3.8666-2.526-0.66056-2.5577-2.6422-0.0706-4.4162 1.6476-1.1752 1.9702-2.8778 2.25-11.872l0.32659-10.5-6.6819 0.14997c-3.675 0.0825-8.175 0.63691-10 1.2321-3.4456 1.1237-18.824 1.4359-31.818 0.64608-4.125-0.25075-9.525-0.5102-12-0.57656-7.1181-0.19085-27.957 0.90408-28.956 1.5214-0.49805 0.30781-1.1882 0.10231-1.5337-0.45666-0.93808-1.5178-7.7279-1.1661-9.9512 0.51549-2.5315 1.9147-4.5589 1.8697-4.5589-0.1012 0-1.3604-1.4148-1.4993-10.623-1.0433-5.8428 0.28935-10.827 0.72945-11.075 0.978-0.24855 0.24856-1.8805 0.026-3.6266-0.49457s-11.853-1.2126-22.459-1.5379l-19.284-0.59141 0.56792 22.759 2.1654 0.30847c1.191 0.16966 2.4097 0.94489 2.7082 1.7227 0.37824 0.98569-0.65675 1.7372-3.4154 2.4801-2.177 0.5862-3.9582 1.2958-3.9582 1.5769 0 0.28112 0.70542 1.8752 1.5676 3.5425 1.0682 2.0656 2.0666 2.8399 3.1338 2.4304 0.86142-0.33055 17.144-0.54399 36.182-0.47429zm828.12-2.1458c0-0.51754-0.45-0.94098-1-0.94098s-1 0.70156-1 1.559 0.45 1.2809 1 0.94098 1-1.0415 1-1.559zm-1362.2-3.096c0.23972-2.8755-0.18093-3.9951-1.9725-5.25-1.2525-0.87726-4.2021-1.595-6.5547-1.595-2.3526 0-4.3349-0.3375-4.4051-0.75-0.0702-0.4125-0.24824-1.65-0.39566-2.75-0.91891-6.8566-2.6462-15.816-3.4638-17.966-1.122-2.951-0.49672-5.166 2.3502-8.3263 1.7092-1.8974 1.8591-2.6222 0.86979-4.2063-0.65741-1.0527-1.4913-3.8461-1.8532-6.2077-0.36183-2.3615-1.2086-5.4187-1.8818-6.7937-0.67314-1.375-1.52-5.5078-1.882-9.1841s-1.2678-8.4121-2.013-10.524-1.685-8.4523-2.0885-14.089c-0.62906-8.789-1.0181-10.402-2.7306-11.318-1.5957-0.85399-1.8702-1.7027-1.366-4.2236 0.42345-2.1173 0.0548-4.2247-1.1208-6.4078-0.9635-1.7891-2.0446-3.2529-2.4025-3.2529-0.60331 0-2.8369-5.8646-5.9034-15.5-0.70015-2.2-1.6006-4.225-2.0009-4.5s-1.9025-2.75-3.3381-5.5c-3.7189-7.1237-7.3243-11.228-8.676-9.8761-0.59555 0.59555-1.5257 7.1113-2.067 14.479-0.96316 13.111-1.6317 18.768-3.7684 31.889-0.58149 3.5707-0.8362 7.3957-0.56604 8.5 0.27017 1.1043 0.097 5.6078-0.38484 10.008-0.52354 4.7808-0.50413 9.3576 0.0482 11.374 0.64328 2.348 0.4525 5.9962-0.62754 12-1.9103 10.619-0.83271 22.196 2.3847 25.621 1.6443 1.7502 2.0048 3.5042 2.0048 9.7544 0 9.2206 1.1371 12.751 4.1072 12.751 3.1007 0 8.6847 6.3462 9.4843 10.779 0.36917 2.0466 0.86962 4.0682 1.1121 4.4924 0.24248 0.42424 9.0709 0.64924 19.619 0.5l19.178-0.27134zm1353.6-4.904c0.5973-2.9863 1.5713-5.4943 5.7163-14.718 2.2131-4.9248 2.6806-10.382 0.7215-8.4228-1.6086 1.6086-6.7158 16.527-7.6662 22.393-0.8304 5.1258 0.2244 5.7674 1.2284 0.74721zm-1.3618-10.482c0-0.63736 2.0241-6.2888 4.4981-12.559 4.1099-10.416 5.6726-17.9 3.7378-17.9-1.0533 0-3.9311 6.8586-4.7829 11.399-0.3863 2.059-1.799 6.0169-3.1393 8.7953-1.3404 2.7784-2.6656 7.3589-2.945 10.179l-0.508 5.127 1.5697-1.9411c0.8633-1.0676 1.5696-2.4626 1.5696-3.1zm2-24.518c0-1.1325-0.45-1.7809-1-1.441s-1 1.2665-1 2.059 0.45 1.441 1 1.441 1-0.92656 1-2.059zm6.4258-8.6082c0.8515-2.2189-1.0289-4.1297-2.5586-2.6-1.2242 1.2243-0.5151 4.2672 0.9944 4.2672 0.5084 0 1.2123-0.75025 1.5642-1.6672zm-1.8508-24.083c0.3837-2.6125 1.0734-5.758 1.5328-6.99 0.4593-1.232 0.4685-3.2311 0.02-4.4425l-0.8148-2.2024-0.723 2.8807c-0.3976 1.5844-1.3966 3.3733-2.2199 3.9753-1.167 0.8533-1.3444 2.2447-0.8049 6.3118 0.3806 2.8694 1.0565 5.2172 1.502 5.2172 0.4454 0 1.1238-2.1375 1.5074-4.75zm-0.8641-25.872c-1.3833-1.3833-2.7109 1.0726-2.7109 5.0148 0 6.2245 1.3585 6.6116 2.3944 0.68225 0.4919-2.8156 0.6343-5.3792 0.3165-5.697zm2.2537-8.6276-0.035-3.25-1.4291 2.5c-1.8411 3.2206-1.8411 4 0 4 1.0329 0 1.489-1.012 1.4646-3.25zm-0.2815-5.9375c-0.3192-0.79773-0.5562-0.56078-0.6042 0.60417-0.043 1.0542 0.193 1.6448 0.5253 1.3125s0.3678-1.1948 0.079-1.9167zm-2.6831-2.7307c0-1.055 0.2855-2.7425 0.6345-3.75 0.5577-1.6098 0.4403-1.5894-0.9682 0.16821-1.7985 2.2443-2.1929 5.5-0.6663 5.5 0.55 0 1-0.8632 1-1.9182zm3-10.704c0-1.3077-0.3975-2.3776-0.8834-2.3776-0.8886 0-2.0776 3.32-2.1029 5.8724-0.011 1.1067 0.2768 1.1314 1.4863 0.12756 0.825-0.68469 1.5-2.3148 1.5-3.6224zm-2.3548-13.552c0.3467-3.479 1.0548-7.1515 1.5736-8.1611 0.5188-1.0096 0.6573-2.1216 0.3078-2.471-1.1134-1.1134-2.4954 2.1804-2.5113 5.9853-0.01 2.0232-0.7125 4.3758-1.5647 5.228-1.1339 1.1339-1.3656 2.5296-0.8639 5.2039 0.9314 4.965 2.2325 2.5041 3.0585-5.785zm-1.2836-16.325c0.3166-0.825 0.1398-1.5-0.393-1.5-0.5327 0-0.9686 0.675-0.9686 1.5s0.1769 1.5 0.393 1.5c0.2162 0 0.652-0.675 0.9686-1.5zm0.7898-18.407c0.1917-1.3239-0.2139-2.5989-0.9014-2.8333-0.8761-0.29876-1.2409 0.87003-1.2196 3.907 0.021 2.9532 0.3078 3.8556 0.9014 2.8333 0.479-0.825 1.0278-2.5832 1.2196-3.907zm-0.7932-14.843c0.3409-2.0625 0.6111-5.1 0.6004-6.75-0.029-4.4748-1.5833-1.1314-2.4408 5.25-0.8109 6.0342 0.8651 7.4002 1.8404 1.5zm3.1657-16.059c-0.8904-0.89035-2.4981 1.9164-2.4685 4.3094 0.02 1.6491 0.2945 1.502 1.5629-0.83841 0.846-1.5611 1.2535-3.1231 0.9056-3.471zm-2.05-6.7178c0.921-4.14 1.4909-8.0775 1.2664-8.75-0.2245-0.67253-1.4031 1.4356-2.6191 4.6847-1.4202 3.7946-1.9877 6.9241-1.5866 8.75 0.3434 1.5634 0.7684 2.8426 0.9445 2.8426s1.0737-3.3872 1.9948-7.5272zm-1.9739-12.473c0.3399-0.55 0.1415-1-0.441-1-0.5824 0-1.059 0.45-1.059 1s0.1984 1 0.441 1c0.2425 0 0.7191-0.45 1.059-1zm3.8241-9.4022c0.5646-1.4714-0.082-2.5978-1.4908-2.5978-0.4583 0-0.8333 0.9-0.8333 2 0 2.2929 1.5233 2.6847 2.3241 0.59777zm-0.4575-17.098 0.022-3-1.8886 4.5c-1.0385 2.475-1.8785 6.075-1.8666 8l0.022 3.5 1.845-5c1.0147-2.75 1.8547-6.35 1.8666-8zm-3.1999-6.1667c-0.3667-0.36666-0.6667-0.0667-0.6667 0.66667 0 0.73333 0.3 1.0333 0.6667 0.66667 0.3666-0.36667 0.3666-0.96667 0-1.3333zm1-7c-0.3667-0.36666-0.6667-0.0667-0.6667 0.66667 0 0.73333 0.3 1.0333 0.6667 0.66667 0.3666-0.36667 0.3666-0.96667 0-1.3333zm2.3333-3.8924c0-0.79254-0.45-1.441-1-1.441s-1 0.92656-1 2.059 0.45 1.7809 1 1.441 1-1.2665 1-2.059zm-0.2395-15.518 0.2605-3.423-1.4751 2.5c-1.8219 3.088-1.9597 5.3025-0.2959 4.7563 0.6875-0.22569 1.3672-1.9507 1.5105-3.8333zm-3.0774-8.1105c-0.3192-0.79773-0.5562-0.56078-0.6042 0.60417-0.043 1.0542 0.193 1.6448 0.5253 1.3125s0.3678-1.1948 0.079-1.9167zm3.2815-9.7625c0.052-5.1068-1.8276-2.4968-2.5142 3.4904l-0.5687 4.9596 1.5237-2.5c0.838-1.375 1.5397-4.0525 1.5592-5.95zm-1.9646-12.05c0-0.55-0.45-1-1-1s-1 0.45-1 1 0.45 1 1 1 1-0.45 1-1zm1.8287-6.0783 0.3287-2.4217-1.5469 2c-1.8872 2.44-2.0387 3.8077-0.3605 3.255 0.6875-0.22642 1.3979-1.5014 1.5787-2.8333zm0.051-19.422-0.09-3-1.3183 4c-0.7251 2.2-1.3331 5.35-1.3513 7l-0.033 3 1.441-4c0.7926-2.2 1.4007-5.35 1.3513-7zm0.1203-12.245c0-2.1088-0.2347-2.3052-1.5-1.2551-0.825 0.68469-1.5 2.3699-1.5 3.7449 0 2.1088 0.2347 2.3052 1.5 1.2551 0.825-0.68469 1.5-2.3699 1.5-3.7449zm0.9225-21.505c0.043-1.5125-0.3179-2.75-0.8012-2.75-1.8817 0-4.8242 12.964-3.2906 14.497 0.8287 0.82873 3.9934-8.257 4.0918-11.747zm0.046-17.5c0.017-1.2375-0.3701-2.25-0.8612-2.25-1.1805 0-2.107 2.5386-2.107 5.7729v2.6093l1.4682-1.9411c0.8075-1.0676 1.4825-2.9536 1.5-4.1911zm-0.2163-13.11c-0.2532-1.178-0.8313-0.73849-2.0522 1.5603-2.5018 4.7106-2.1993 7.6314 0.3562 3.4397 1.1266-1.848 1.8898-4.098 1.696-5zm-2.7522-6.7581c0-0.825-0.45-1.2219-1-0.88197s-1 1.293-1 2.118 0.45 1.2219 1 0.88197 1-1.293 1-2.118zm2.5945-28.37 0.4911-4.5122-2.042 5c-1.1231 2.75-2.0247 6.35-2.0036 8l0.038 3 1.5126-3.4878c0.8319-1.9183 1.7335-5.5183 2.0036-8zm-2.9278-8.6788c-0.3667-0.36666-0.6667-0.0667-0.6667 0.66667 0 0.73333 0.3 1.0333 0.6667 0.66667 0.3666-0.36667 0.3666-0.96667 0-1.3333zm3.1602-6.9104c0.3728-3.3322-1.162-2.3758-2.3194 1.4454-0.5327 1.7586-0.3686 2.2536 0.6376 1.9229 0.7452-0.24498 1.502-1.7607 1.6818-3.3683zm0.1578-17.173c-0.012-2.1429-0.2293-2.4189-0.9847-1.25-1.2644 1.9565-1.2644 4 0 4 0.55 0 0.9931-1.2375 0.9847-2.75zm0.6364-13.876c0.3489-1.3901 0.1525-2.3736-0.474-2.3736-1.0941 0-4.2039 9.102-4.0765 11.932 0.076 1.6892 3.569-5.6475 4.5505-9.5579zm-2.6211-18.374c0-0.55-0.1984-1-0.441-1-0.2425 0-0.7191 0.45-1.059 1s-0.1415 1 0.441 1c0.5824 0 1.059-0.45 1.059-1zm-125.51 452.99c-0.343-0.55492-0.3391-1.9054 0.01-3.001 0.5415-1.7063 1.232-1.9082 4.8145-1.4077 5.5171 0.77087 6.6823 1.1699 6.6823 2.2884 0 1.1424-5.4542 3.1292-8.5902 3.1292-1.2605 0-2.5724-0.45403-2.9153-1.009zm15.23-4.7399c-0.6172-5.4762-0.3279-6.2511 2.3342-6.2511 1.6861 0 1.941 0.72241 1.941 5.5 0 4.7058-0.27 5.5-1.8699 5.5-1.489 0-1.9791-0.96759-2.4053-4.7489zm-6.2573-11.304c-0.3281-0.5309-0.3276-1.8128 0-2.8487 0.4995-1.5739 1.8659-1.9575 8.3145-2.334 5.4546-0.31845 8.1313-0.0716 9.1309 0.84219 1.1934 1.0909 1.2023 1.5479 0.057 2.9276-1.064 1.2821-2.3402 1.4909-5.9141 0.96792-2.5065-0.3668-4.9848-1.0799-5.5073-1.5846-1.3863-1.3392-2.55-1.1223-2.55 0.47528 0 1.7016-2.7057 2.8922-3.5325 1.5544zm0.098-10.471c-3.7858-4.0849-3.4879-8.7546 0.8341-13.077 4.3478-4.3478 9.0063-4.6119 13.573-0.76949 2.7742 2.3344 3.0925 3.1393 2.8268 7.1494-0.3666 5.5313-3.3746 8.1925-10.119 8.9527-4.0216 0.45329-4.8455 0.19201-7.1142-2.256zm10.863-5.048c1.8427-1.8427 1.9426-2.8664 0.5362-5.4943-1.0357-1.9352-4.4976-2.552-6.5608-1.169-1.3635 0.91398-2.6718 5.9924-1.8756 7.2807 0.937 1.516 6.1762 1.1066 7.9002-0.61742zm-393.99-9.85c-1.6523-1.21-1.9411-2.6605-1.9411-9.75v-8.3286l-2.1774-0.31003c-3.4946-0.4976-4.8324-2.7757-3.4333-5.8464 1.065-2.3374 1.5919-2.5424 5.2681-2.0493 5.5148 0.73968 6.3622 1.8002 4.4277 5.5412-0.8718 1.6859-1.5851 3.2319-1.5851 3.4356 0 0.47985 8.8216-0.86784 11.768-1.7978 1.8014-0.56863 2.9583 0.0166 5.6277 2.847 4.4818 4.752 5.4204 9.7253 2.5867 13.705-3.9206 5.5059-8.2284 2.8934-5.6003-3.3964 1.0857-2.5984 1.112-3.6009 0.1298-4.9441-1.6518-2.2589-3.5115-2.1353-3.5115 0.23337 0 3.2411-1.1254 5.0818-3.107 5.0818-1.3086 0-1.893 0.71-1.893 2.3 0 2.4493-1.6803 4.7-3.5089 4.7-0.6098 0-1.9823-0.63964-3.05-1.4214zm5.5593-8.0196c0-0.79254-0.45-1.7191-1-2.059s-1 0.30852-1 1.441 0.45 2.059 1 2.059 1-0.64844 1-1.441zm372 4.45c-0.5913-1.105-0.9468-2.0361-0.79-2.0693 0.1569-0.0331 2.4227-0.27125 5.0352-0.52915 3.8378-0.37886 4.75-0.16921 4.75 1.0916 0 1.6015-0.5333 1.9007-5.21 2.9233-2.068 0.45217-2.9647 0.11663-3.7852-1.4165zm1.7452-4.7936c-1.9211-0.24332-2.75-0.92536-2.75-2.2628 0-2.4286 3.6445-3.4185 7.3703-2.0019 4.837 1.839 1.385 5.0254-4.6203 4.2648zm9.7866-6.1562c-0.3574-0.5783-0.6334-6.1806-0.6134-12.45 0.029-9.1616-0.2712-11.654-1.5311-12.699-1.2435-1.0319-1.4978-2.9666-1.2299-9.3557l0.3378-8.0547-4.5 0.43308c-9.2255 0.88786-10.5 0.71391-10.5-1.4331v-2l9.4596-0.52397c5.2028-0.28818 13.604-0.28818 18.669 0 5.0653 0.28819 23.758 0.29897 41.54 0.024 17.782-0.275 32.893-0.33936 33.581-0.14301 0.6875 0.19634 1.25 0.92659 1.25 1.6228 0 1.8571-5.2995 2.1303-45.983 2.3702-20.065 0.11833-36.848 0.5804-37.294 1.0268s0.1692 3.7997 1.3681 7.4517c1.8761 5.715 1.9867 6.8729 0.7942 8.312-1.0118 1.2211-1.3855 4.9281-1.3855 13.746 0 10.442-0.2239 12.118-1.6568 12.399-0.9112 0.17899-1.9492-0.14771-2.3066-0.72601zm-380.93-7.6411c-0.3339-0.86998-0.607-4.02-0.607-7 0-4.4994 0.2968-5.4156 1.75-5.4029 1.9889 0.0174 3.1862 0.76364 5.0499 3.1473 1.0758 1.3759 1.026 2.3183-0.2888 5.465-2.1621 5.1748-4.7383 6.8288-5.9041 3.7906zm0.143-20.108c-0.9625-0.25152-1.75-1.0517-1.75-1.7782 0-0.72649-2.2018-3.7032-4.8928-6.6148-4.1714-4.5133-4.748-5.6119-3.9103-7.4504 0.8577-1.8824 1.5956-2.0975 5.8077-1.6928l4.8251 0.46363 0.3351-2.2669c0.1844-1.2468 1.153-2.7629 2.1525-3.369 1.4909-0.90424 2.2091-0.6298 4 1.5285 1.2005 1.4468 3.6452 3.3709 5.4327 4.2757 4.6222 2.3396 3.9982 5.7757-1.2248 6.7449-1.2652 0.23478-2.5484 1.9193-3.5712 4.6881-1.4122 3.823-3.4705 6.3281-4.954 6.0294-0.275-0.0554-1.2875-0.30649-2.25-0.55802zm340.25-15.194c0-1.7142 0.3375-3.1689 0.75-3.2328 3.0192-0.46771 12.075-0.62218 13.5-0.23028 0.9625 0.26468 1.75 1.137 1.75 1.9386 0 1.8191-4.0833 3.4347-8.3026 3.2849-1.7586-0.0624-4.2099 0.21721-5.4474 0.62137-2.0092 0.65622-2.25 0.40135-2.25-2.3818zm-927.73-6.3666c-0.57976-1.2375-3.577-5.1415-6.6605-8.6755-4.3522-4.988-5.6064-7.1561-5.6064-9.691 0-1.796 0.40219-3.514 0.89377-3.8178 0.49157-0.30381 2.5268 0.12996 4.5228 0.96394 3.9678 1.6579 7.5834 0.67343 7.5834-2.0648 0-0.80565 0.70295-1.4648 1.5621-1.4648 3.1186 0 11.308 3.22 11.862 4.664 0.73521 1.9159-0.93773 5.005-3.434 6.341-1.6297 0.87219-1.9234 1.9634-1.7271 6.4173 0.18095 4.1051-0.21121 5.8614-1.6684 7.472-2.5137 2.7784-5.9909 2.7098-7.3281-0.14443zm2.2946-14.45c-0.46448-1.2104-0.91884-1.3425-1.752-0.50939-0.83312 0.83312-0.76926 1.5533 0.24623 2.7769 1.551 1.8689 2.5283 0.39723 1.5057-2.2675zm1048.4 12.2c-4.675-1.2878-11.2-2.8654-14.5-3.5058-3.3-0.64039-10.725-2.2218-16.5-3.5142s-11.962-2.6398-13.75-2.9943c-3.0217-0.59916-4.3321-2.6987-2.4214-3.8796 0.8523-0.52674 21.512 3.9036 44.947 9.6385 9.785 2.3945 13.203 3.6223 13 4.6693-0.1517 0.7813-0.7258 1.5346-1.2758 1.674s-4.825-0.80019-9.5-2.088zm-475.76-0.48617c-1.6447-2.6337-1.5858-11.159 0.093-13.455 1.1692-1.5989 1.7754-1.6778 4.92-0.63998 4.0096 1.3233 6.2478 3.4613 5.2736 5.0376-0.3548 0.57409-1.4061 1.0581-2.3361 1.0756l-1.691 0.0318 1.75 1.3284c2.653 2.0139 2.1079 4.4191-1.5 6.6189-4.0687 2.4807-4.9616 2.4811-6.5095 3e-3zm4.4887-7.6177c-0.3323-0.33229-1.1948-0.36781-1.9167-0.0789-0.7977 0.31922-0.5608 0.55618 0.6042 0.60416 1.0541 0.0434 1.6448-0.19293 1.3125-0.52522zm414.27-4.4192c-1.925-0.44783-7.6742-1.6361-12.776-2.6406-7.136-1.405-9.2039-2.1735-8.963-3.3312 0.3988-1.9164 7.0042-1.7385 14.739 0.3969 3.025 0.83513 7.3 1.8908 9.5 2.3458 2.4453 0.50584 4 1.3906 4 2.2762 0 1.7588-1.862 2.0317-6.5 0.95276zm-30-5.7123c-1.375-0.19111-3.4-0.74809-4.5-1.2377-2.3067-1.0268-6.9918-1.9469-13.705-2.6916-5.54-0.61453-7.9041-2.6544-5.6679-4.8905 1.2736-1.2736 2.386-1.2217 8.9141 0.41607 4.1024 1.0292 10.039 2.4122 13.192 3.0733 3.1532 0.66111 6.0189 1.6646 6.3684 2.2301 0.9855 1.5946-1.8225 3.4866-4.6013 3.1004zm-976.76-7.2507c-2.7731-4.4404-0.45877-7.5101 4.5738-6.0668 3.2689 0.93751 4.4856 0.17942 4.7274-2.9456 0.0639-0.82566 0.19313-2.2362 0.28721-3.1346 0.20059-1.9156 4.2792-2.9452 6.5757-1.66 2.5256 1.4134 2.1499 9.821-0.56938 12.74l-2.1647 2.3236-2.693-3.6829-1.5455 2.2065c-2.0312 2.9-7.437 3.0294-9.1915 0.22005zm941.78 0.25216c-2.4642-0.22178-5.0199-0.85105-5.6794-1.3984-0.6595-0.54732-2.4683-1.1828-4.0196-1.4123-1.5514-0.22942-4.3617-0.63923-6.2452-0.91069-4.1406-0.59677-5.5594-1.8407-4.6884-4.1104 0.5386-1.4036 1.4781-1.589 5.3827-1.0621 2.6017 0.35106 7.8803 1.3449 11.73 2.2086 3.85 0.86367 8.0417 1.7773 9.3149 2.0303 1.7149 0.34075 2.2333 1.0314 2 2.6644-0.3432 2.4025-1.0925 2.5938-7.7953 1.9906zm-26.481-6.2028c-0.3185-0.51538-2.3173-0.91306-4.4417-0.88374-4.0316 0.0556-10.698-1.7258-12.85-3.434-0.6888-0.5468-2.6746-0.70974-4.4129-0.3621-2.217 0.44341-3.6976 0.14588-4.9602-0.99677-0.99-0.89588-2.4368-1.3844-3.2153-1.0857-0.7785 0.29873-1.8755 0.083-2.4379-0.47938-0.6967-0.69669-1.235-0.35314-1.6893 1.0782-0.9689 3.053-3.4715 2.5723-4.6817-0.89934-1.0966-3.1455-2.8502-4.0684-2.8502-1.5 0 2.6-3.8991 1.7504-4.5894-1-0.5852-2.3318-1.3308-2.864-3.1521-2.25-0.4078 0.1375-0.8905 1.6-1.0726 3.25-0.1822 1.65-0.7788 3.45-1.3259 4-1.4095 1.4171-3.86-2.1959-3.86-5.6911 0-1.5449-0.3375-2.8663-0.75-2.9365-0.4125-0.0702-1.7925-0.23519-3.0667-0.36666-5.3205-0.54899-5.5138-5.5057-0.2147-5.5057 2.688 0 3.0314-0.33312 3.0314-2.941 0-1.6175 0.4697-3.2313 1.0438-3.5861 1.5821-0.97781 3.7992 1.3435 4.1468 4.3417 0.1859 1.6028 1.0179 2.8027 2.0837 3.0048 1.5331 0.29081 1.69-0.1903 1.1544-3.5397-0.4533-2.8352-0.21-4.2164 0.906-5.1426 1.2709-1.0548 1.7213-0.90112 2.6959 0.91993 0.6435 1.2024 1.4626 4.2316 1.8202 6.7314 0.3575 2.4998 1.261 4.7488 2.0077 4.9977 1.065 0.35499 1.2103-0.41931 0.6743-3.592-0.7335-4.3415 0.6163-8.1942 2.8709-8.1942 0.9416 0 1.3707 1.6889 1.4608 5.75 0.1389 6.2628 1.5692 8.25 5.9379 8.25h2.4202l-0.6799-3.75c-0.374-2.0625-1.6615-4.5186-2.8613-5.458-1.7588-1.3772-1.9678-2.0551-1.079-3.5 1.3296-2.1612 9.8037-3.0298 11.975-1.2275 2.161 1.7935 1.706 3.8772-1.0777 4.9355-1.9766 0.75151-2.5 1.6484-2.5 4.2841 0 1.8335 0.5625 4.0294 1.25 4.8797 1.1682 1.445 7.8393 3.4515 20.675 6.2186 5.6677 1.2218 7.0971 2.6808 5.0468 5.1512-1.4002 1.6871-2.603 1.8726-3.4332 0.52934zm-222.34-2.263c-0.66-0.66-1.2-2.6024-1.2-4.3163s-0.4849-5.7391-1.0774-8.9448l-1.0775-5.8284 1.984-1.984c1.5695-1.5694 2.735-1.8432 5.5775-1.3099 2.5848 0.48491 3.5934 1.1928 3.5934 2.5218 0 1.0162-0.7257 2.1262-1.6126 2.4665-1.3233 0.5078-1.3859 0.89207-0.3487 2.1417 1.0463 1.2607 0.8791 1.8813-0.9708 3.6048-2.4587 2.2906-1.8782 3.5032 1.9219 4.014 4.0388 0.5429 3.6232 3.4226-0.9067 6.2822-2.2238 1.4039-4.1873 2.5525-4.3632 2.5525-0.176 0-0.8599-0.54-1.5199-1.2zm-31.418-1.8623c-0.945-0.55082-2.4331-2.6746-3.3068-4.7196-0.8736-2.045-2.7269-6.0496-4.1183-8.8993-3.0333-6.2122-2.8238-8.8943 0.6745-8.6377 1.3578 0.0996 3.6924-0.28675 5.188-0.85856 1.9003-0.72656 3.6506-0.71495 5.8122 0.0386 2.2894 0.79811 3.5899 0.76787 5.0058-0.1164 3.4357-2.1456 4.1948 0.18819 2.3736 7.2971-0.9988 3.8988-1.4218 8.2174-1.0841 11.069 0.3046 2.5716 0.3094 4.92 0.011 5.2187-0.2987 0.29868-1.7249 0.0937-3.1694-0.4555-1.8064-0.68676-2.737-0.66683-2.9805 0.0639-0.4388 1.3162-2.1477 1.3162-4.4057 7e-5zm7.5533-13.111c0.7044-2.6936-0.2799-4.5216-1.4448-2.6832-1.1268 1.7784-1.1312 4.8568-0.01 4.8568 0.4858 0 1.1391-0.97809 1.4517-2.1735zm15.107 9.9235c-1.0944-4.9369-2.7238-5.2298-3.4421-0.61884-0.5783 3.7124-2.4619 4.8041-3.7608 2.1796-1.0528-2.1274-1.5104-11.881-0.68-14.497 0.8804-2.7738 3.2685-2.1568 3.6244 0.93648 0.4374 3.8019 2.2482 3.4576 2.6298-0.5 0.3625-3.7599 2.9131-4.4719 3.582-1 0.2385 1.2375 0.9535 4.8339 1.589 7.992 1.2195 6.0603 0.7042 9.758-1.3597 9.758-0.6823 0-1.6645-1.9125-2.1826-4.25zm22.095 3c-0.2201-0.6875-0.6514-3.05-0.9584-5.25s-0.8459-5.9089-1.1975-8.2419c-0.4202-2.7879-0.2104-4.7589 0.6122-5.75 1.6541-1.993 8.42-1.952 10.435 0.0634 1.8693 1.8693 1.8269 1.3971 0.4736 5.2794-0.6038 1.7321-1.5038 3.1492-2 3.1492-1.705 0-0.9007 2.9304 1.0978 4 1.1695 0.62592 2 2.0938 2 3.5352 0 2.4736-0.6613 2.8311-4.6545 2.5165-1.185-0.0934-2.449 0.30683-2.809 0.88931-0.8894 1.4392-2.5106 1.336-2.9995-0.19095zm3.963-13.75c0.3399-0.55 0.1415-1-0.441-1-0.5824 0-1.059 0.45-1.059 1s0.1984 1 0.441 1c0.2425 0 0.7191-0.45 1.059-1zm10.633 12.392c-0.6535-1.4341-1.4385-5.3802-1.7446-8.7689-0.467-5.1705-0.2615-6.4181 1.2775-7.7572 1.0088-0.87768 3.4937-1.8488 5.5222-2.1581 4.587-0.69944 6.6732 1.1897 5.0533 4.5759-0.583 1.2188-1.3117 3.0034-1.6193 3.9659s-1.4735 1.75-2.5907 1.75c-1.1173 0-2.0314 0.45-2.0314 1s-0.018 1.3375-0.039 1.75c-0.022 0.4125 1.4358 0.975 3.2387 1.25 6.2822 0.95824 4.4168 7-2.1612 7-3.0353 0-3.935-0.47825-4.9051-2.6075zm32.475 1.028c-0.3334-0.86871-0.3293-3.3108 0.01-5.4268 0.3943-2.4659-0.013-5.8439-1.1338-9.4079-1.4155-4.5001-1.5096-5.8491-0.4937-7.0732 1.5062-1.8148 3.0666-1.8998 6.4634-0.3521 1.5419 0.70253 2.5496 1.9851 2.5534 3.25 0 1.2706 1.1795 2.7571 3 3.793 5.1564 2.9341 3.3343 10.071-3.6702 14.376-4.5457 2.7939-5.9131 2.9648-6.7282 0.84069zm8.2117-8.6603c-0.404-2.8311-3.8196-3.7255-3.8196-1.0002 0 2.2649 0.8234 3.24 2.7362 3.24 0.8814 0 1.2841-0.83259 1.0834-2.2398zm9.6887 7.6957-2.9917-2.4165-0.7284-16.039h2.1059c1.1583 0 2.1457 0.3375 2.1942 0.75 0.049 0.4125 0.253 2.8971 0.4542 5.5214 0.2012 2.6242 0.6426 5.2191 0.9808 5.7663 1.247 2.0177 2.2059-0.11477 1.918-4.2656-0.1629-2.3496-0.073-5.0596 0.1986-6.0221 0.5613-1.985 4.3418-2.4152 4.3944-0.5 0.019 0.6875 0.2439 4.625 0.4999 8.75s0.128 7.9932-0.2844 8.596c-1.6364 2.392-5.6869 2.3271-8.7415-0.14013zm14.222-0.2059c-2.4279-2.6893-4.0244-10.335-2.9908-14.324 1.4351-5.5384 3.6402-4.3237 4.4892 2.473 0.4053 3.2446 0.8572 6.0144 1.0042 6.1549 0.421 0.4025 3.0867 0.69398 5.1598 0.56419l1.8924-0.11848-0.6222-5.9535c-0.3995-3.8214-0.237-6.1916 0.4535-6.6183 1.7767-1.0981 3.7064 1.7916 4.3886 6.5718 0.3533 2.475 0.9467 4.8029 1.3187 5.173 0.3721 0.37018 2.0227 0.82018 3.6679 1 3.8449 0.42022 4.5893 3.3774 1.2349 4.9058-1.7475 0.79624-3.4966 0.80023-6.3212 0.0144-3.2034-0.89121-4.1046-0.81751-5.0153 0.41017-1.5143 2.0411-6.7259 1.8886-8.6597-0.25342zm25.649-0.44578c-0.4065-0.65768-1.5198-4.1039-2.4741-7.6583-1.2407-4.6215-1.4633-7.1772-0.7812-8.9713 1.1415-3.0024 0.1896-3.801-5.6032-4.701-2.2113-0.34355-7.6205-1.3309-12.02-2.1941-4.4-0.8632-8.8513-1.6167-9.8917-1.6745-1.0405-0.0578-2.3905-0.90536-3-1.8835-0.858-1.3768-0.7695-1.9944 0.3917-2.7347 2.2482-1.4332 5.7854-1.1929 13.52 0.91841 3.8389 1.0479 9.6799 2.4289 12.98 3.0689s6.7645 1.3806 7.6988 1.6459c2.2928 0.65088 3.3946 4.3624 1.6582 5.5857-0.92 0.64814-0.3926 0.74307 1.6374 0.29476 1.6469-0.3637 3.5424-1.1161 4.2122-1.672s5.0125-1.1272 9.6505-1.2695l8.4327-0.25885 2.6899 2.8499c1.4794 1.5675 3.6642 2.8642 4.8551 2.8817 2.4275 0.0357 5.6652 2.1536 5.6652 3.706 0 0.55952-0.6903 1.5902-1.5341 2.2905-1.1474 0.95224-2.0927 0.99976-3.75 0.18855-1.2187-0.59655-3.9031-1.6547-5.9652-2.3514-2.8998-0.97972-4.0192-0.99697-4.94-0.0761-0.9209 0.92086-0.8077 1.9937 0.4993 4.7346 0.9295 1.9492 1.69 4.3805 1.69 5.403 0 2.0737-2.2335 3.3044-4.452 2.4531-1.6927-0.64954-3.0573-8.2148-2.1406-11.867 0.5565-2.2174 0.3144-2.5128-2.0596-2.5128-1.4797 0-3.4965-0.72958-4.4818-1.6213-2.3961-2.1684-4.6485-1.1358-5.0439 2.3122-0.2016 1.7586-1.1635 3.1782-2.5721 3.7962-3.8595 1.6932-2.694 3.5129 2.25 3.5129 3.7073 0 4.5 0.325 4.5 1.845 0 1.0148-0.8229 2.5898-1.8287 3.5-2.1137 1.9128-8.7029 2.2218-9.7923 0.45921zm216.74-1.7088c-1.0151-0.64226-1.26-2.5069-0.9294-7.0767l0.4488-6.2047-2.3206-0.88226c-2.344-0.89121-2.9021-2.5167-1.5552-4.53 0.4041-0.604 2.6149-1.3917 4.9129-1.7503 3.124-0.48761 4.5748-0.25558 5.75 0.91961 2.1025 2.1025 1.9859 2.91-0.675 4.6768-1.9615 1.3023-2.2473 2.3544-2.25 8.2818 0 6.7601-0.758 8.2257-3.3815 6.5658zm-93.633-2.8454c0.3879-1.5125 1.0753-5.3215 1.5275-8.4645 1.338-9.2997 3.003-10.123 7.0726-3.499 4.0414 6.5787 5.4094 10.616 4.0559 11.969-0.8592 0.85916-1.4435 0.84529-2.3444-0.0556-1.8592-1.8592-5.6132-1.4176-6.8 0.8-0.5887 1.1-1.7783 2-2.6436 2-1.2205 0-1.4151-0.61648-0.868-2.75zm33.178 2.0833c-0.3667-0.36666-0.6667-1.4132-0.6667-2.3257 0-1.794-4.6502-6.6908-5.524-5.817-0.2926 0.29256-0.134 1.6068 0.3524 2.9206 0.4865 1.3138 0.6865 2.9512 0.4447 3.6387-0.5464 1.553-5.2731 1.6673-5.2731 0.12756 0-0.79052-0.4306-0.76506-1.4562 0.0861-1.8828 1.5626-3.5379 0.50767-3.5658-2.2727-0.012-1.205-0.9207-4.1719-2.0191-6.593-1.8645-4.1094-1.8713-8.098-0.014-8.098 1.8158 0 3.7078 4.2261 5.4843 12.25 1.1932 5.3892 2.5804 2.7675 2.3253-4.3949-0.1641-4.6059 0.1455-7.286 0.8712-7.5419 0.6191-0.21833 2.4191 0.97841 4 2.6594l2.8743 3.0564 0.5-2.682c0.275-1.4751 1.0597-2.8682 1.7438-3.0958 1.7218-0.57276 2.8581 2.979 3.6789 11.499l0.6984 7.25h-1.8939c-1.0416 0-2.1939-0.3-2.5605-0.66667zm9.0833-0.41343c-1.9448-1.1327-2.3134-3.4537-0.7062-4.447 0.5741-0.35481 1.6775-0.11919 2.452 0.5236 1.4612 1.2126 5.5042 0.50087 5.5042-0.96902 0-0.46075-1.9086-1.4429-4.2414-2.1826-5.1718-1.6399-5.9158-4.0431-2.2914-7.4021 2.938-2.7229 3.7981-2.9064 6.5985-1.4076 2.8164 1.5073 2.3775 2.7827-1.3157 3.8236l-3.25 0.91593 3.2711 1.2178c3.7711 1.404 5.6202 4.1991 4.6987 7.1025-1.0521 3.315-7.1289 4.9163-10.72 2.8248zm-973.23-3.6465c-2.5599-3.0737-2.9833-4.4092-2.9833-9.4088 0-8.2277 1.0576-9.0174 12.907-9.6372 8.2728-0.43272 9.8722-0.25451 11.579 1.2902 2.6518 2.3998 2.4954 3.9321-0.65443 6.4097-2.7628 2.1732-6.3651 2.7802-6.3651 1.0726 0-0.55-0.5051-1-1.1224-1-0.82815 0-0.82719 0.35576 4e-3 1.3568 1.4028 1.6903 0.50472 6.4888-1.7113 9.1435-1.5754 1.8872-6.4304 4.5853-7.9669 4.4275-0.38662-0.0397-2.0454-1.6842-3.6863-3.6544zm6.9833-9.2734c-0.48382-0.78284-1.0591-0.84093-1.7257-0.17426-0.55 0.55-0.67341 1.5284-0.27426 2.1743 0.48382 0.78284 1.0591 0.84093 1.7257 0.17426 0.55-0.55 0.67341-1.5284 0.27426-2.1743zm907.19 10.297c-0.7982-3.8664-5.6617-11.056-7.8694-11.634-2.6152-0.68388-2.5159-5.6637 0.1129-5.6637 4.0159 0 7.0651 1.8786 7.0651 4.3528 0 1.3213 0.6697 2.9581 1.4882 3.6374 1.2058 1.0007 1.6065 0.92669 2.1118-0.39029 0.3431-0.89395 0.073-2.2889-0.6-3.0999-1.929-2.3243-0.4301-4.6821 2.7443-4.317 2.3471 0.26997 2.8033 0.83592 3.077 3.817 0.3947 4.2995 2.1787 6.5489 2.1787 2.747 0-3.9115 2.0598-7.747 4.1605-7.747 2.0934 0 2.3131 1.6243 0.769 5.6849-0.5888 1.5483-1.2015 5.4943-1.3615 8.7689-0.16 3.275-0.7974 6.1226-1.4166 6.329-0.6191 0.20637-2.0758-1.2354-3.2373-3.2038-1.1614-1.9685-2.5043-3.579-2.9843-3.579-0.4799 0-1.2514 1.4618-1.7144 3.2485-1.0879 4.1983-3.7465 4.8147-4.524 1.049zm75.059 1.1306c-2.2812-1.2376-2.75-2.1626-2.75-5.426 0-5.424 2.7855-11.002 5.4941-11.002 1.168 0 2.9578 0.60993 3.9773 1.3554 2.4617 1.8001 1.3149 4.6446-1.8726 4.6446-1.6251 0-2.691 0.7152-3.1307 2.1007-0.831 2.618 0.1923 3.6537 4.0233 4.0724 1.9771 0.21608 3.1125 0.96455 3.3484 2.2071 0.6814 3.5891-4.2153 4.6923-9.0898 2.0479zm14.885-0.50061c-2.0315-1.598-2.6349-2.9544-2.6349-5.9233 0-5.1856 3.9605-10.004 8.2225-10.004 3.5733 0 7.7744 4.2138 7.7763 7.7997 0 3.8374-2.7416 7.915-6.1176 9.0919-4.1622 1.4509-4.1789 1.4487-7.2463-0.96416zm8.1426-4.4841c2.292-1.6054 2.9724-4.8618 1.2395-5.9328-1.6301-1.0075-7.838 0.58065-8.4441 2.1602-0.8006 2.0863 1.1709 5.3293 3.2398 5.3293 0.9582 0 2.7424-0.70052 3.9648-1.5567zm-744.51-7.0986c-0.67589-0.27354-2.2213-2.263-3.4341-4.421-1.2129-2.158-2.5423-3.9237-2.9542-3.9237-0.41193 0-0.71243 1.2852-0.66777 2.8559 0.0959 3.3726-0.82254 5.1441-2.667 5.1441-1.7773 0-2.2361-1.4186-3.541-10.949-1.5796-11.536-0.0397-12.974 6.228-5.8165l3.735 4.2655-0.57122-3.056c-0.39386-2.1072-0.0827-3.4615 1.0022-4.3619 2.9002-2.407 4.284-0.5943 4.8407 6.341 0.29122 3.628 1.0988 7.2823 1.7946 8.1207 1.022 1.2314 1.0115 1.9982-0.0546 3.9903-1.357 2.5356-1.612 2.66-3.7107 1.8107zm-38.771-1.5758c-6.3365-1.5498-8.5-2.6172-8.5-4.1937 0-0.80719-1.8167-4.9783-4.0371-9.2691-4.4473-8.5942-4.7298-11.627-1.1304-12.136 2.4103-0.34138 6.1675 2.2696 6.1675 4.286 0 1.6551 2.3768 6.5274 3.1887 6.5366 0.3788 4e-3 0.99806-2.1297 1.3761-4.7422 0.74381-5.1396 1.9147-7.25 4.0224-7.25 2.898 0 3.4406 3.5837 1.4605 9.6465-2.5748 7.8834-3.0996 14.354-1.1644 14.354 0.48585 0 1.1254-0.7875 1.4213-1.75 1.8149-5.9038 5.1162-13.948 6.1962-15.098 1.9959-2.1248 4.6147-0.0739 9.8284 7.6969 4.7832 7.1292 5.7487 10.523 3.2647 11.476-1.4825 0.5689-4.594-2.2046-4.594-4.095 0-0.73774-0.92548-0.62918-2.75 0.32258-1.5125 0.789-3.6542 1.4373-4.7594 1.4407-1.1052 3e-3 -2.5715 0.90616-3.2585 2.0062s-1.5827 1.9431-1.9905 1.8736-2.5415-0.56661-4.7415-1.1047zm13.329-11.672c-1.6358-2.6194-2.8287-2.6914-2.8287-0.1707 0 1.0597 0.7875 2.1018 1.75 2.3159 2.4332 0.5412 2.5774 0.25443 1.0787-2.1452zm35.5 10.558c-1.7443-1.1856-3.6568-3.1893-4.25-4.4527-1.3541-2.8837-1.3961-6.203-0.0786-6.203 0.55 0 1-0.675 1-1.5s0.40787-1.5 0.90638-1.5 0.70003-0.7891 0.44781-1.7536c-0.94989-3.6324 9.4716-7.0207 12.446-4.0464 2.0143 2.0143 1.3898 4.7143-1.2432 5.3751-1.3438 0.33726-2.8719 0.34822-3.3959 0.0244-0.52401-0.32386-2.0208-0.0287-3.3262 0.65586-1.5717 0.82423-2.2476 1.9203-2.0008 3.2447 0.69224 3.7159 3.2293 5.5 7.8211 5.5 3.6247 0 4.345 0.31972 4.345 1.9286 0 5.0732-7.0024 6.5802-12.671 2.727zm18.033 0.12059c-0.30268-0.48976-0.66715-1.8773-0.80992-3.0833-0.14276-1.2061-0.58479-4.9217-0.98226-8.2568-0.79287-6.6528-0.38471-7.4102 4.9305-9.1488 1.9589-0.64076 3.9885-0.64148 5.8486-2e-3 2.5061 0.86146 2.7762 1.3412 2.2464 3.9902-0.33402 1.6701-0.10543 3.6096 0.51331 4.3551 0.61353 0.73925 0.83541 2.074 0.49307 2.9661-0.47726 1.2437-1.4092 1.4744-3.9958 0.98919-2.442-0.45811-3.5245-0.23918-3.9205 0.79293-0.82506 2.15 0.24708 2.6558 4.2672 2.013 4.5321-0.72471 6.8663 1.325 4.9688 4.3633-0.95662 1.5318-2.3678 1.9117-7.1014 1.9117-3.2491 0-6.1552-0.40071-6.4579-0.89047zm471.23-7.6333c-0.5865-0.94892-9.5758-2.8936-16.644-3.6005-7.9764-0.79782-9.8193-2.5249-6.3725-5.9718 1.7284-1.7284 2.0702-1.6818 15.193 2.0678 4.5458 1.2989 8.9175 2.3617 9.7148 2.3617 0.7974 0 1.9213 0.88111 2.4976 1.958 0.8418 1.5728 0.6649 2.163-0.899 3-2.3626 1.2644-2.8084 1.288-3.4902 0.18485zm-769.64-2.2425c-1.2476-2.3311-1.0859-5.6056 0.48876-9.9004 1.3022-3.5516 1.6751-3.6791 7.2341-2.473 1.8954 0.41124 2.1474 1.0841 1.9941 5.3252-0.20645 5.712-1.6175 7.7672-5.7492 8.3736-2.1785 0.31974-3.2852-0.0499-3.9678-1.3255zm721.53-7.7848c-6.0629-1.4946-11.575-3.0586-12.25-3.4755-1.6041-0.99138-1.554-2.81 0.1413-5.1285l1.3679-1.8707 6.3821 2.0819c3.5102 1.145 8.2417 2.3009 10.514 2.5686 6.3331 0.74598 9.8676 2.7956 9.8676 5.7221 0 3.4173-2.5104 3.4333-16.023 0.10209zm-29.08-6.1191c-1.2185-1.2185-11.566-3.9964-14.886-3.9964-1.3157 0-2.6748-0.45734-3.0203-1.0163-0.3454-0.55897-1.0661-0.74563-1.6014-0.4148s-3.3167-0.17455-6.1809-1.1231c-2.8642-0.94852-5.7701-1.8727-6.4576-2.0538-1.9366-0.5101-1.4743-4.2016 0.67-5.3492 1.4173-0.75853 4.3624-0.41722 11.25 1.3038 5.1315 1.2822 12.244 2.8925 15.806 3.5783 3.5619 0.68584 7.2744 1.6741 8.25 2.1962 2.0865 1.1167 2.2456 3.6732 0.3816 6.1289-1.506 1.9838-2.7531 2.2049-4.2116 0.74644zm-682.66-6.7464c-1.2549-1.3937-1.4651-3.2768-1.0327-9.25 0.76165-10.52 0.81172-26.104 0.27062-84.239-0.33755-36.266-0.79312-50.862-1.5971-51.171-1.625-0.62373-2.2969-6.6649-1.0666-9.5906 0.57823-1.375 1.1634-5.0699 1.3004-8.2108l0.24909-5.7108-2.9136 0.58273c-2.1737 0.43475-3.0782 0.15378-3.5618-1.1064-0.3565-0.92902-0.25093-2.0726 0.2346-2.5413 0.48553-0.4687 6.3727-1.001 13.083-1.1828 13.109-0.35523 15.969 0.45378 13.238 3.7442-1.0802 1.3015-2.4932 1.5444-6.5493 1.1258l-5.172-0.5338-0.72869 3.1666c-2.2184 9.6402 0.67307 12.915 12.94 14.656 4.7203 0.67004 8.8315 1.6214 9.136 2.1142 0.30455 0.49278 2.5364 0.89596 4.9598 0.89596s6.3343 0.64368 8.691 1.4304c2.3567 0.78672 6.085 1.7372 8.285 2.1122 4.3236 0.73699 8.5 2.9258 8.5 4.4547 0 0.5232-1.4097 1.6803-3.1327 2.5712-2.3624 1.2216-3.3145 1.3259-3.8719 0.42395-0.40656-0.65782-3.8343-1.5524-7.6173-1.988-7.705-0.8871-10.06-1.6044-12.687-3.8647-1.1225-0.96575-3.2669-1.4508-5.6524-1.2786-2.114 0.15264-4.6751-0.15121-5.6913-0.67523-2.8398-1.4644-6.6111-2.9941-9.1025-3.6922-1.6447-0.46082-2.4281-0.13955-2.895 1.1872-0.35203 1.0004-1.5651 2.564-2.6958 3.4746-1.6063 1.2937-1.8035 1.9596-0.90193 3.0459 0.84028 1.0125 1.1624 16.459 1.1856 56.844 0.0175 30.5 0.32631 60.911 0.6862 67.581 0.3599 6.6698 0.3581 13.307-4e-3 14.75-0.77044 3.0697-3.5385 3.4802-5.8859 0.87304zm635.77-4.8259c-2.75-0.79249-8.0076-2.1119-11.684-2.932-10.302-2.2983-12.006-3.1395-11.636-5.7437l0.3193-2.2484 6 0.30711c3.3 0.1689 8.025 0.92679 10.5 1.6842 2.475 0.75739 6.525 1.9032 9 2.5462 2.475 0.64299 5.0625 1.6277 5.75 2.1882 1.7516 1.4281 1.558 4.4421-0.3318 5.1673-1.9757 0.75817-1.8879 0.76891-7.9182-0.96889zm-862.52-36.476c-1.1216-2.7078-1.6708-3.0178-4.8713-2.75-2.5295 0.21167-3.8837 0.93138-4.5328 2.409-0.77541 1.7652-1.7944 2.1072-6.2793 2.1072-2.9445 0-5.6422-0.46688-5.9949-1.0375-0.35266-0.57062-0.54403-3.1671-0.42526-5.77 0.24634-5.3988-1.0493-7.0143-2.7073-3.3754-1.5195 3.335-3.5248 3.1049-6.5424-0.75086-1.3858-1.7707-2.8232-2.9159-3.1943-2.5448-0.37107 0.37107-0.73235 3.5074-0.80284 6.9695l-0.12815 6.2948h-5l-0.24228-5c-0.13325-2.75-0.75142-7.5601-1.3737-10.689-0.62228-3.129-0.84218-6.8415-0.48867-8.25 0.84661-3.3732 3.9678-3.3499 6.308 0.047 0.98817 1.4344 3.2237 4.2459 4.9678 6.2478l3.1711 3.6398 2.7096-6.2478c2.4211-5.5825 3.0151-6.2478 5.5789-6.2478 3.1105 0 3.6735 1.7484 1.9916 6.1849-0.86101 2.2711 0.69826 14.999 1.9937 16.274 0.3388 0.33347 1.9142-2.6709 3.501-6.6764 3.9145-9.8816 5.5848-10.08 12.041-1.4267 5.2327 7.0128 6.7509 7.0161 5.7441 0.0122-0.67594-4.7019-0.0983-5.3266 5.9473-6.4322 4.3819-0.80128 8.1826 0.4026 9.1389 2.8948 0.32924 0.85797-0.32101 2.8038-1.445 4.324-1.124 1.5203-2.0436 3.0289-2.0436 3.3526 0 0.32366 1.2375 1.6646 2.75 2.9799 2.2617 1.9668 2.5534 2.7129 1.6428 4.202-1.6094 2.6319-4.2911 2.7969-6.5228 0.40144-2.3061-2.4752-3.4474-2.6346-4.2316-0.59085-0.85203 2.2204-3.4024 1.8189-4.189-0.65941l-0.68537-2.1594-1.6136 2.6594c-0.8875 1.4627-1.9048 2.6595-2.2607 2.6595-0.35588 0-1.2159-1.3733-1.9112-3.0518zm-4.9785-10.007c0-0.51754-0.675-0.94098-1.5-0.94098-1.5464 0-1.9867 1.18-0.86052 2.3062 0.79893 0.79893 2.3605-0.10419 2.3605-1.3652zm17.5-0.94098c0.33992-0.55 0.14148-1-0.44098-1s-1.059 0.45-1.059 1 0.19844 1 0.44098 1 0.7191-0.45 1.059-1zm34.853 13.235c-1.6825-1.0782-3.2058-8.0038-3.0176-13.719 0.12525-3.804 0.56496-5.0623 1.8563-5.3122 1.0667-0.20644 2.2774 0.8043 3.2757 2.7347 2.0201 3.9064 4.0443 3.9005 5.4095-0.0159 1.5954-4.5766 4.1166-3.4653 5.8485 2.5781 2.3724 8.2779 3.5298 8.5113 6.3375 1.2777 3.3118-8.5324 5.3836-8.5351 12.619-0.0168 2.9248 3.4435 5.3178 6.62 5.3178 7.0589s-0.6532 1.6715-1.4516 2.7391l-1.4516 1.9411-2.5889-2.75c-1.4239-1.5125-3.0801-2.75-3.6804-2.75s-2.5769 1.575-4.3924 3.5c-3.7184 3.9427-4.9014 4.2701-6.3233 1.75-0.79087-1.4017-1.2387-1.5012-2.2497-0.5-2.0712 2.0511-3.3898 1.4455-4.6916-2.1546-1.3044-3.6072-3.1868-4.9102-5.7004-3.9456-0.96547 0.37049-1.3095 1.2811-0.93261 2.4686 1.281 4.0362-1.1777 7.0428-4.1841 5.1163zm40.228-0.88221c-0.34771-0.90614-0.90981-4.9315-1.2491-8.9453l-0.61689-7.2978 2.714-0.68118c2.1985-0.55179 3.3268-0.0873 5.9397 2.4453 1.7741 1.7196 3.7223 3.1265 4.3293 3.1265s2.0329-1.575 3.1687-3.5 2.6855-3.5 3.4438-3.5c2.2631 0 4.358 3.1774 5.7425 8.7099 1.6215 6.4796 0.26537 10.617-3.3134 10.108-1.8724-0.26601-2.2919-1.0385-2.5544-4.7037l-0.31411-4.3854-5.692 6.7708-2.8946-2.75c-1.592-1.5125-3.2279-2.75-3.6352-2.75-0.40733 0-0.43588 1.6243-0.0634 3.6095 0.48306 2.5749 0.28108 3.8604-0.70469 4.4847-2.1085 1.3354-3.6018 1.0778-4.3001-0.74171zm-62.634-1.4495c-1.3591-2.5396-2.2649-12.329-1.3944-15.072 0.77641-2.4462 3.5017-2.3354 4.1566 0.16903 0.6968 2.6646 2.1366 2.5209 5.3222-0.5311 1.6707-1.6006 3.2532-2.2965 4.3047-1.893 2.0703 0.79444 2.1595 3.767 0.16282 5.4241-2.1819 1.8108-1.8952 2.4723 1.9751 4.5565 1.9113 1.0293 3.7222 2.5153 4.0241 3.3021 0.55012 1.4336-2.0769 5.1414-3.6428 5.1414-1.0288 0-4.4603-2.7484-7.1791-5.75-2.8026-3.0942-3.6773-2.826-3.6773 1.1276 0 1.8576-0.64362 3.9117-1.4303 4.5646-1.1479 0.95267-1.6655 0.74751-2.6217-1.0391zm743.97-0.79697c-1.9384-1.5903-2.2021-2.3278-1.3378-3.7419 1.4291-2.338 5.1744-3.2222 9.1735-2.1656 2.1852 0.57736 3.25 1.4644 3.25 2.7076 0 2.3371-1.6645 3.6845-5.5857 4.5217-2.2923 0.48944-3.7064 0.14956-5.5-1.3219zm92.705 0.60479c-1.2947-0.94665-1.5823-2.0095-1.0828-4 0.5387-2.1461 1.2679-2.7108 3.5006-2.7108 5.0542 0 7.8882 4.8993 4.0287 6.9648-2.5676 1.3742-4.314 1.3054-6.4465-0.25402zm-268.12-24.396c-1.65-0.21199-3.9-0.78871-5-1.2816s-4.1181-1.1767-6.7069-1.5195c-5.9793-0.79189-9.3088-3.3135-8.3528-6.3258 0.40363-1.2717 1.5165-2.1879 2.6575-2.1879 2.961 0 23.221 5.1524 24.652 6.2695 2.7833 2.1719 0.63746 6.0577-3.0818 5.5807-0.64251-0.0824-2.5182-0.32328-4.1682-0.53527zm-32.5-7.4303c-1.925-0.50086-5.525-1.3227-8-1.8263s-8.325-2.0364-13-3.4062-12.1-2.9884-16.5-3.5968c-8.9805-1.2417-14.362-2.4718-22.718-5.1932-3.1452-1.0242-7.2573-1.8622-9.1381-1.8622-1.8808 0-7.4075-1.1782-12.282-2.6182-4.874-1.44-9.7619-2.7422-10.862-2.8937-2.5604-0.35272-12.818-2.4073-18-3.6052-2.2-0.5086-5.8-1.1781-8-1.4878s-5.6966-1.2003-7.7702-1.9791c-2.0736-0.77881-4.9986-1.4088-6.5-1.3999-3.2677 0.0193-20.828-3.8504-23.898-5.2663-1.1923-0.54989-3.4338-0.99981-4.9812-0.99981-4.2377 0-6.6535-4.1452-4.4466-7.6296 0.73736-1.1642 2.2575-1.1092 9.7347 0.35178 4.8735 0.95226 9.2884 2.1356 9.8109 2.6296 0.5225 0.49403 2.1784 0.89823 3.6798 0.89823 1.5014 0 8.7239 1.372 16.05 3.0488 7.3261 1.6768 15.57 3.4467 18.32 3.933 2.75 0.48631 11.3 2.4864 19 4.4446 7.7 1.9582 15.177 3.5634 16.615 3.567 1.4383 4e-3 3.7563 0.90427 5.1511 2.0014 1.8165 1.4288 3.384 1.8252 5.525 1.397 1.8432-0.36865 6.3855 0.36468 11.849 1.9129 4.8729 1.3809 11.242 2.8222 14.154 3.2029 4.1924 0.54816 5.7234 1.273 7.3579 3.4839l2.064 2.7917 5.6512-3.2434 6.3165 1.7974c3.4741 0.98859 9.0165 2.3574 12.316 3.0419s7.0125 1.795 8.25 2.4679c2.4576 1.3363 2.9387 4.0643 1.05 5.953-1.3541 1.3541-1.8949 1.3609-6.8 0.0846zm-412.32-3.689c-3.2802-3.6246-1.5321-14.196 2.3474-14.196 2.6077 0 2.9883 14.836 0.40259 15.693-0.59015 0.19565-1.8276-0.47816-2.75-1.4974zm228.08-36.765c-1.5097-0.81906-4.6597-1.8913-7-2.3827-2.3403-0.49141-6.7301-1.64-9.7551-2.5524-13.73-4.1412-40.733-10.301-50.5-11.519-3.3-0.41164-6.9-1.0082-8-1.3257s-4.5889-1.076-7.7531-1.6856c-5.9385-1.1441-8.3288-3.2854-7.1363-6.3928 0.42028-1.0952 1.9187-1.5724 4.9374-1.5724 2.3837 0 4.5796 0.39741 4.8798 0.88313 0.30019 0.48571 2.9675 1.1857 5.9274 1.5555 2.9599 0.36981 7.0256 1.5535 9.035 2.6305 2.2764 1.2201 4.5674 1.7287 6.0785 1.3494 1.3338-0.33477 3.9595-0.10229 5.8349 0.51663 1.8753 0.61891 7.5884 1.7495 12.696 2.5125 6.3344 0.94626 10.225 2.0816 12.241 3.572 2.1528 1.5916 3.2544 1.8855 4.0573 1.0826 1.3474-1.3474 5.1171-1.4319 7.4658-0.16727 2.1098 1.136 21.865 6.1758 22.958 5.8569 0.42822-0.12494 2.2411 0.29736 4.0286 0.93845 3.8799 1.3915 4.3393 4.3933 1.0275 6.713-2.7736 1.9427-7.4282 1.9374-11.022-0.0126zm-168.42-38.854c-2.8432-0.68948-6.5024-1.058-8.1316-0.81883-1.6292 0.23911-3.2671-0.0585-3.6397-0.66136-0.37259-0.60287-1.8055-1.0961-3.1842-1.0961s-3.3771-0.46583-4.441-1.0352c-1.9646-1.0514-2.6389-4.4113-1.0788-5.3755 0.81677-0.50479 6.7822 0.71 19.456 3.962 3.1962 0.82011 6.2244 1.2358 6.7293 0.92366 1.3218-0.81689 4.9595 1.3493 4.9595 2.9532 0 1.3775-2.2023 2.6418-4.3318 2.4868-0.64251-0.0468-3.4944-0.64916-6.3376-1.3386zm47.089-12.447c0.39941-0.64625 0.0616-1.1297-0.78937-1.1297-0.81818 0-2.2103-0.72268-3.0935-1.606-1.2693-1.2693-1.3546-1.9088-0.40702-3.0506 0.6594-0.79454 2.3624-1.3094 3.7845-1.1441 2.2176 0.25779 2.5856 0.78678 2.5856 3.7172 0 2.027-0.56502 3.605-1.3892 3.8797-0.84322 0.28107-1.1148 0.0191-0.69098-0.66667zm964.44-33.054-2.3608-1.9242 1.9301-3.6179c1.0616-1.9898 4.7548-5.9614 8.2071-8.8258 3.4523-2.8643 6.1789-5.8829 6.0592-6.7079-0.3994-2.7524-6.8605-3.4523-15.631-1.6932-8.72 1.749-11.066 1.4753-11.066-1.2913 0-3.5478 2.8275-4.5106 12.941-4.4065 10.73 0.11043 16.328 1.5084 18.508 4.6222 1.9894 2.8403 0.9073 4.5172-6.9493 10.769-11.041 8.7852-11.136 12.088-0.2948 10.234 28.085-4.8025 42.633-7.3394 44.545-7.7679 1.4011-0.31401 2.25-1.2474 2.25-2.474 0-1.4005 0.6502-1.9459 2.25-1.8871 3.3419 0.12276 13.366-1.8292 15.638-3.0451 1.0893-0.58298 2.6851-1.06 3.5463-1.06 2.5217 0 1.8003 2.5399-1.1593 4.081-1.4987 0.78044-4.5715 3.3315-6.8285 5.669-4.5851 4.7486-7.7633 5.6242-7.2594 2 0.3468-2.4938 0.3592-2.4943-7.8152 0.30872-2.8205 0.96714-11.596 2.7481-19.5 3.9577-7.9046 1.2096-17.297 2.8179-20.872 3.574-9.0066 1.905-13.34 1.7668-16.139-0.51469zm-868.06-12.443c-0.8824-0.62328-2.5476-1.7951-3.7006-2.604-2.4706-1.7334-2.7085-4.2762-0.56658-6.0538 1.1604-0.96306 2.1167-1.002 3.962-0.16121 1.7371 0.79147 3.3008 0.80554 5.4704 0.0492 4.5463-1.5849 3.6703-2.8634-1.962-2.8634h-5v-5.8776c0-7.1633 1.3646-8.6286 7.7759-8.3496 6.5696 0.28592 8.2241 1.0247 8.2241 3.672 0 2.2972-2.0113 4.7649-3.6447 4.4717-2.6223-0.47067-2.4341 0.34472 0.35989 1.5596 3.9849 1.7326 5.2516 5.6628 3.0352 9.4174-1.3301 2.2532-3.8473 3.9203-10.8 7.1525-0.8522 0.39619-2.2714 0.21039-3.1538-0.41289zm832.88-2.4376c-1.109-1.2254-1.677-3.5846-1.677-6.9653 0-2.8117-0.3623-5.3362-0.8052-5.6099-0.4429-0.2737-2.3604-0.14688-4.2612 0.28183l-3.4561 0.77946 0.7326-7.6817 6.1449-0.13652c17.905-0.3978 17.096-0.46543 17.468 1.4609 0.6238 3.2321-2.6709 5.7053-7.2288 5.4262-3.5502-0.21733-4.0756 0.0152-3.9527 1.7494 0.078 1.1 0.7435 3.474 1.4789 5.2754 0.9605 2.3529 1.0413 3.7444 0.2868 4.9405-1.536 2.4351-2.841 2.5674-4.7304 0.47967zm-783.34-1.8216c-5.6474-3.2924-6.8451-6.8435-4.1471-12.297 3.5524-7.1801 11.666-11.102 15.105-7.3015 2.4893 2.7507 1.1834 4.9672-3.3809 5.7384-2.2769 0.38468-4.5377 1.5351-5.38 2.7376-2.0166 2.8791-1.0179 3.8795 2.2042 2.2079 1.4886-0.77228 4.656-1.6965 7.0388-2.0538 3.6676-0.54999 4.7074-0.29735 6.7766 1.6466 1.3443 1.2629 2.4442 2.8607 2.4442 3.5507 0 0.68997-1.5156 2.8615-3.3681 4.8257-3.0098 3.1913-3.8874 3.5606-8.25 3.4712-3.2141-0.0658-6.3035-0.92878-9.0431-2.526zm12.236-5.4947c0.62378-1.0093-1.6621-1.1667-3.9871-0.27451-0.86682 0.33264-1.3532 0.96539-1.0808 1.4061 0.58831 0.95191 4.2912 0.12509 5.0679-1.1316zm680.93 6.9113c-4.2193-1.4789-6.5-3.7198-6.5-6.3865 0-3.4121 1.8285-3.9069 5.207-1.4091 2.2982 1.6992 3.8534 2.0947 6.5288 1.6605 6.3432-1.0294 5.7973-2.6156-1.1704-3.401-5.2296-0.58945-7.0386-2.2331-6.1879-5.6224 0.7197-2.8673 6.5059-5.8949 10.407-5.4452 2.1789 0.25123 2.7825 0.89949 3.0531 3.2794 0.1855 1.6314 1.4517 3.999 2.8138 5.2614 1.83 1.696 2.2993 2.8795 1.7977 4.5338-1.0317 3.403-4.5284 6.7386-7.0641 6.7386-1.2467 0-2.5448 0.45-2.8847 1-0.7504 1.2142-2.0699 1.1681-6-0.20944zm-16.944-1.6145c-0.6963-2.1937-5.4891-6.9042-7.4826-7.3541-0.986-0.22252-1.4919 0.70907-1.6374 3.0154-0.1159 1.8356-0.7113 3.838-1.3233 4.45-2.1192 2.1192-3.3778-1.0032-3.733-9.2607-0.4503-10.473 0.8274-11.218 7.6744-4.4735 2.6949 2.6544 5.1356 4.5906 5.4237 4.3025 0.288-0.28805 0.5988-2.4415 0.6907-4.7854 0.1689-4.3104 1.9942-6.3076 3.9643-4.3376 0.549 0.54904 1.2179 4.0658 1.4863 7.8149 0.2685 3.7492 0.7098 7.1754 0.9808 7.6139 0.8858 1.4333-1.6249 4.8385-3.5676 4.8385-1.0436 0-2.1579-0.82077-2.4763-1.8239zm48.829 0.65027c-3.4425-0.62993-5.9487-1.8175-7.6632-3.6312-2.8848-3.0517-3.4186-5.3002-2.343-9.8692 0.5485-2.3299 1.5681-3.4602 3.8337-4.25 6.8285-2.3804 12.445-0.6238 11.593 3.626-0.2926 1.4601-1.2008 1.7477-4.8325 1.5302-2.4597-0.14734-5.1472 0.19931-5.9722 0.77031-1.2911 0.8936-1.1948 1.2948 0.6914 2.8807 4.1617 3.4992 13.058 3.4802 15.368-0.0328 0.3074-0.46762 1.3751-0.25347 2.3725 0.4759 2.4907 1.8212 1.3389 4.6365-3.0374 7.4237-1.943 1.2375-3.8391 2.1965-4.2134 2.1312-0.3744-0.0653-2.9827-0.54002-5.7962-1.0549zm29.144 0.21977c-0.4019-0.65035-1.3837-0.93193-2.1816-0.62574-0.8102 0.31089-1.181 0.12021-0.8398-0.43182 0.336-0.5437-0.131-0.98855-1.0378-0.98855-2.3657 0-5.3971-4.0342-5.436-7.2342-0.02-1.6217 1.0856-3.9584 2.7167-5.743 2.2281-2.4377 3.8354-3.1304 8.4692-3.6498 7.2297-0.81042 11.549 0.82789 13.313 5.0496 1.8326 4.386 0.7558 8.2561-3.1198 11.212-3.7505 2.8607-10.731 4.2771-11.884 2.4115zm7.5372-7.0813c4.3471-2.3265 0.2408-6.9648-6.1658-6.9648-4.1597 0-6.359 1.9781-5.4352 4.8887 0.8786 2.7683 7.9448 4.0329 11.601 2.0762zm-162.91 3.8948c-1.4629-1.7272-4.5723-5.3422-6.9098-8.0334-4.3311-4.9864-5.0578-7.4484-3.2148-10.892 1.7182-3.2105 3.8082-2.2179 7.5079 3.5657 1.9351 3.025 3.9545 5.5 4.4876 5.5 1.5301 0 1.1451-1.184-1.1952-3.6751l-2.1644-2.304 1.8194-2.0105c1.4138-1.5622 3.067-2.0071 7.4145-1.9952 3.0772 8e-3 6.1125 0.34592 6.7451 0.75 2.3025 1.4709 1.8334 4.2388-1.1207 6.6118-2.5686 2.0635-2.7888 2.6053-1.6275 4.0046 0.7386 0.89004 1.9471 1.6182 2.6854 1.6182 1.726 0 3.4127-3.1609 3.4127-6.3953 0-2.5767 3.404-6.6047 5.5816-6.6047 2.6019 0 2.244 3.4244-1.0929 10.456-1.9188 4.0434-3.4887 8.0148-3.4887 8.8252 0 0.81046-0.7266 2.0766-1.6146 2.8136-1.4021 1.1636-2.0074 0.8505-4.597-2.3776-3.2972-4.11-6.355-5.0782-5.2732-1.6696 0.7297 2.299-0.9996 4.952-3.2279 4.952-0.8073 0-2.6647-1.4132-4.1275-3.1404zm49.77-2.6096c-1.7943-8.5154-1.713-12.299 0.2924-13.593 2.6573-1.7154 3.8326 0.23549 4.8048 7.9755 1.0243 8.1556 0.4409 11.368-2.0648 11.368-1.4094 0-2.0945-1.2991-3.0324-5.75zm-25.829 3.3719c-0.8895-1.0718-0.2753-3.0164 2.7641-8.75 2.1493-4.0546 4.5514-7.5015 5.3381-7.66 1.6199-0.32625 6.7966 3.4172 6.7966 4.9148 0 0.53991 1.3479 2.4198 2.9954 4.1774 3.4874 3.7208 4.0356 7.6958 1.0613 7.6958-1.0688 0-2.6239-0.97165-3.4557-2.1592-1.2417-1.7728-1.7802-1.937-3.0087-0.91738-0.823 0.68302-2.401 0.95472-3.5066 0.6038-1.3574-0.43082-2.582 0.0295-3.7703 1.4174-2.053 2.3977-3.6177 2.601-5.2142 0.67735zm9.8988-8.6219c0-0.55-0.4766-1-1.059-1-0.5825 0-0.7809 0.45-0.441 1s0.8165 1 1.059 1c0.2426 0 0.441-0.45 0.441-1zm-659 4c-1.1-1.1-2.0143-2.7875-2.0318-3.75-0.0175-0.9625-0.6925-2.6235-1.5-3.6911-3.0906-4.0862-0.89346-10.559 3.5842-10.559 2.4891 0 3.4956 3.9893 2.0516 8.1316-0.60719 1.7418-1.104 3.3402-1.104 3.5521s2.157 0.0991 4.7933-0.25064l4.7933-0.63585 1.1323 2.4852c0.89499 1.9643 0.82164 2.9287-0.34999 4.6014-2.0032 2.86-8.5581 2.927-11.369 0.11627zm50.48-3.0326c-1.9585-3.1689-2.3384-7.3404-0.91845-10.086 2.904-5.6157 7.0588-2.5734 5.9193 4.3342-0.96039 5.8218-3.2968 8.5092-5.0008 5.752zm8.6416-1.321c-1.767-2.129-0.27538-10.463 2.002-11.186 1.0222-0.32444 2.3126-0.30929 2.8676 0.0337 2.2829 1.4109 0.0948 12.506-2.4664 12.506-0.70385 0-1.7852-0.60912-2.4031-1.3536z"/>
</svg>
